<?xml version="1.0" encoding="UTF-8"?>
<svg id="Layer_1" data-name="Layer 1" xmlns="http://www.w3.org/2000/svg" viewBox="0 0 239.85 195.32">
  <path d="M143.57,60.07l14.28,70.59s-3.54,9.91-2.2,11.93,4.05,4.05,4.05,4.05l11.93,2.17,5.39-3.04.33-8.57-10.09-5.03-11.43-53.27-12.26-18.84Z" style="fill: #fdfefe; stroke-width: 0px;"/>
  <path d="M66.56,66.77c1.4-.48,2.05-2.14,2.47-4.2l-8.66-1.31-6.22-1.1-2.17,1.34-.15.71c5,2.26,9.97,5.86,14.73,4.55Z" style="fill: #12dac6; stroke-width: 0px;"/>
  <path d="M80.54,135.51c.65-.74.86-1.76.6-2.68-.6-4.17-2.38-7.44-3.57-11.61-.68-2.44-1.61-4.76-3.07-6.7l-.36.51-10.92-1.67-21.52,5.39,8.24,10.42,16.49,1.01,9.88,6.9c1.04-1.25,2.86-.68,4.23-1.58Z" style="fill: #fdfefe; stroke-width: 0px;"/>
  <path d="M175.83,53.52l-10.27-9.58-17.85-.51,1.4,6.9-3.36,1.34-4.88,7.74-18.66-3.36-13.09.42-17.97,17.59-3.54,7.86-18.3-19.34-.24-.03c-.42,2.05-1.07,3.72-2.47,4.2-4.76,1.31-9.73-2.26-14.76-4.55l-.51,2.23,1.34,3.36-12.44,12.44-1.01,3.04,3.69,1.52,15.47-2.68,22.35,23.87-6.19,8.57c1.46,1.93,2.35,4.26,3.07,6.7,1.19,4.17,2.98,7.44,3.57,11.61.27.92.06,1.93-.6,2.68-1.37.92-2.68,1.13-3.72,2.35l4.91,4.7,10.42.54h33.92l12.59-40.5,15.62-24.52,14.61,3.36,10.74-8.75.51-10.27-4.34-8.9Z" style="fill: #da09b3; stroke-width: 0px;"/>
  <ellipse cx="41.26" cy="125.39" rx="9.46" ry="12.89" style="fill: #fdfefe; stroke-width: 0px;"/>
  <ellipse cx="169.91" cy="138.13" rx="14.73" ry="20.06" style="fill: #fdfefe; stroke-width: 0px;"/>
  <ellipse cx="171.45" cy="64.77" rx="8.51" ry="12.62" style="fill: #fdfefe; stroke-width: 0px;"/>
  <path d="M215.49,154.64c4.52-.48,9.05-1.13,13.6-1.46,2.71-.18,4.14-1.82,5.83-3.87-6.04,0-11.78-.06-17.5.06-1.49.03-1.58-.51-1.43-1.7.62-5.68.21-11.43-1.28-16.93-.09-.39-.24-.74-.39-1.1-.03-.09-.09-.15-.06-.18-.3.21-.42.57-.33.89,1.22,7.35.83,14.88-1.07,22.11-3.18,11.9-9.2,21.99-19.28,29.31-8.39,6.07-17.74,8.63-27.97,6.25-12.11-2.86-19.88-10.86-24.73-22.05-.24-.57-.48-1.1-.74-1.67-.68.6.03,1.1.18,1.61.3.95.39,1.37-.92,1.61-13.45,2.38-26.96,4.52-40.44,6.7-.48.09-.86.15-1.16-.42,8.33-3.63,16.72-7.14,24.64-11.87-9.97-.18-19.82,1.01-29.7,1.73-9.97.68-19.91,1.87-29.91,2.32,5.8-3.24,12.02-5.56,18.39-8.33-3.66-.54-7.02-.27-10.45-.62.15-.74.33-1.4.45-2.08s.51-1.25.3-2.2c-6.31,8.45-14.14,13.9-24.91,12.8-10.95-1.1-17.17-8.3-21.16-17.91-.03.48-.03.98.03,1.46q.21,1.79-1.64,1.79H4.99c-.03.18-.03.36-.06.54.83.77,1.67,1.55,2.47,2.32.51.48,1.16.77,1.87.77,5.39.3,10.8.62,16.19.83.98-.03,1.9.51,2.35,1.4,2.59,4.37,6.46,7.86,11.1,9.97,1.4.65,2.86,1.19,4.43,1.85-2.56.86-5.06,1.49-7.74,2.74l65.14-4.17c.03.15.03.27.06.42-12.86,5.09-26.16,9.02-39.28,13.39,7.8-.65,15.59-1.37,23.36-2.14,8.24-.83,16.46-1.7,24.7-2.56,3.93-.42,7.89-1.22,11.81-1.13,7.98.18,15.92.86,23.9,1.31.39-.03.77.15,1.04.45,1.1,1.37,2.23,2.74,3.45,4.2-8.06,1.52-16.1,2.68-24.01,4.4,1.43-.24,2.89-.36,4.34-.45,6.49-.51,12.94-.95,19.4-1.55,1.67-.15,2.95.12,4.34,1.16,8.51,6.34,17.97,8.12,28.27,5.59,7.38-1.82,13.51-5.77,18.75-11.16.51-.6,1.25-.98,2.02-1.1,5.51-.6,11.01-1.22,16.55-1.85,3.66-.42,7.32-.89,10.98-1.31-7.86-.24-15.68-.24-23.51-.24-.48,0-1.13.27-1.4-.15-.3-.51.36-.8.62-1.22.3-.45.65-.89.95-1.34,2.8-3.96,5.59-7.95,8.39-11.9.62-.89.62-1.93.36-2.86s-1.13.39-1.7-.24c.42-.74-.24-2.02,1.34-2.2Z" style="fill: #12dac6; stroke-width: 0px;"/>
  <path d="M98.31,67.15c-.3.8-1.01,1.25-1.55,1.87-1.19,1.43-2.71,2.59-3.6,4.26,2.86,1.43,5.71,2.83,8.57,4.29,1.22.62,2.5,1.22,3.57,2.05s1.87.77,2.74-.21c.24-.3.48-.62.95-.6h0l1.13-1.76c.39-.6.74-1.16,1.16-1.73,1.99-2.95,1.99-3.01-.39-5.74-.48-.57-.98-1.13-1.52-1.64-1.61-1.55-3.27-3.07-5-4.7,5.48,1.82,20.68,14.91,27.56,26.81,2.59-1.99,5.15-3.99,7.74-5.98,3.04-2.35,3.84-4.7,2.86-8.45-1.13-4.37-3.69-7.86-6.93-10.89-1.61-1.25-3.33-2.32-5.18-3.15-1.43-.68-2.86-1.28-4.31-1.9-3.12-1.31-6.4-2.35-9.7-3.09-.36-.09-.71-.27-.89.12-.27.57.33.51.6.68.92.74,1.85,1.49,2.77,2.23,4.61,3.72,8.93,7.71,11.81,12.97.42.77.89,1.58.95,2.5-.54.06-.74-.27-.92-.54-1.1-1.67-2.47-3.07-3.81-4.52-4.52-4.88-9.82-8.93-14.73-13.36-.39-.39-.8-.68-1.28-.95-.18-.09-.39-.18-.6-.24s-.45-.06-.65-.06c-1.61,1.52-3.27,2.95-4.73,4.61-1.73,1.93-3.57,3.78-5.39,5.65-.24.68-.68,1.1-1.22,1.46Z" style="fill: #12dac6; stroke-width: 0px;"/>
  <path d="M164.22,73.64c.6.39,1.25,1.07,1.96.33.8-.8-.18-1.22-.54-1.7-3.9-4.91-5.56-10.36-3.81-16.52.48-1.67.09-2.86-.83-4.11-1.9-2.56-4.17-4.76-6.49-6.93-.51-.48-1.07-.89-1.28-1.61h-3.07c.21.3.3.48.42.6,3.48,4.64,5.98,9.58,4.64,15.65-.27,1.25.09,2.41.6,3.57,1.1,2.5,2.74,4.67,4.2,6.99,1.19,1.46,2.62,2.71,4.2,3.72Z" style="fill: #12dac6; stroke-width: 0px;"/>
  <path d="M18.47,108.34c3.15-1.19,6.28-2.35,9.4-3.57.89-.36,1.16-.21,1.31.71.39,2.05.92,4.11,1.43,6.31,3.36-5.65,6.64-11.13,9.88-16.6.6-1.01,1.31-1.64,2.47-1.87,1.4-.3,2.77-.74,4.14-1.1,1.04-.27,1.64-.89,1.7-1.96s-.57-1.64-1.46-1.96c-.33-.12-.65-.3-1.07-.48,3.39-1.43,6.73-2.83,10-4.23l21.81,25.21-2.35,3.57c-1.7-3.21-3.39-6.19-5.77-8.69-5.53-5.83-12.2-8.15-20.06-6.1-5.62,1.46-10,4.91-13.57,9.37-5.3,6.67-8.24,14.34-9.14,22.79-.83,8.09.45,15.77,4.94,22.74,7.38,11.49,20.89,13.75,31.57,5.27,4.67-3.72,7.62-8.63,9.73-14.14.77-2.05,1.37-4.17,2.11-6.49,2.17,1.87,4.29,3.6,6.28,5.45.86.83,1.99,1.31,3.18,1.31,1.79.06,3.57.24,5.33.39,3.07.24,6.13.45,8.9,1.99.83.45,1.79.65,2.71.65,11.52.21,23,.42,34.49.65.86.03,1.07-.27,1.13-1.07.09-1.55.27-3.07.45-4.58,1.07-9.08,4.23-17.77,9.22-25.41.24-.39.42-.8.98-.74.95.12,1.9.21,2.92.3-.09.18-.18.36-.3.54-7.98,11.04-11.28,23.27-9.55,36.81,1.1,8.6,4.52,16.16,10.62,22.38,6.84,6.99,15.15,10.39,24.97,9.17,8.84-1.1,16.07-5.42,21.93-11.96,9.52-10.68,13.78-23.24,12.74-37.55-.65-8.93-3.69-16.93-9.46-23.87-1.55-1.87-3.42-3.42-5.39-5.15l4.94-2.02c-2.11-1.58-4.4-2.92-6.81-3.93-5.65-2.47-11.61-3.51-17.77-3.57-.45,0-1.13.36-1.34-.51-.57-2.29-1.19-4.58-1.79-6.87-.09-.39-.03-.8.18-1.16,1.43-2.47.71-4.55-1.13-6.43.06-.09.12-.18.18-.27,7.98-6.37,10.06-15.24,5.77-24.52-1.22-2.65-2.74-5.12-4.26-7.65,4.14-.95,5.98-4.91,4.17-8.69-.77-1.67-2.05-2.5-3.87-2.44-1.76.06-2.77,1.16-3.39,2.68-.48,1.1-.54,2.26-.54,3.69-5.83-6.9-12.56-11.9-21.72-13.15,2.26,2.56,4.4,5.21,6.4,7.98.77,1.07,2.47,2.35,1.79,3.39-.77,1.13-2.74.51-4.2.24.21.71.77,1.13,1.28,1.61,2.32,2.17,4.58,4.37,6.49,6.93.92,1.25,1.31,2.44.83,4.11-1.76,6.16-.06,11.61,3.81,16.52.36.45,1.34.89.54,1.7-.71.74-1.37.06-1.96-.33-1.61-1.01-3.04-2.26-4.23-3.69-.54-.18-.98-.54-1.31-.98-1.37-1.64-2.65-3.36-4.11-4.88-1.4-1.49-1.67-3.01-1.34-5,1.07-6.19-.95-11.4-5.53-15.65-1.13-1.07-2.44-1.34-4.08-1.04,1.49,2.08,3.3,3.81,4.67,6.22-1.99-.65-3.99-.51-5.3-2.11-1.22-1.49-2.41-3.01-3.6-4.52-.62-.74-.54-1.87.24-2.5.15-.12.33-.21.51-.3.39-.15.65-.48.71-.86.33-1.25.6-2.5.92-3.75.21-.8,0-1.31-.86-1.55-2.05-.57-4.08-1.1-6.1-1.73-.77-.24-1.01.12-1.37.68s-.15,2.02-1.07,1.61c-.71-.3.21-1.34.51-1.99,1.25-2.89,1.7-5.68.09-8.66-1.1-2.02-1.82-4.26-2.71-6.4-.21-.51-.36-.92-.09-1.52,1.85-4.23-.39-9.14-4.82-10.65-2.32-.8-4.52-.45-6.37,1.22-1.79,1.64-1.87,3.75-1.22,5.89,1.34,4.52,6.37,8.09,10.89,5.42,1.07,2.71,2.11,5.42,3.21,8.09.65,1.46.62,3.15-.09,4.58-.36.74-.68,1.52-.98,2.32-.24.74-.62.95-1.4.71-1.43-.42-2.95-.77-4.4-.48-1.93.42-3.69-.12-5.48-.65-3.07-.89-6.04-2.17-9.2-2.8-1.67-.33-3.04.68-3.3,2.38-.3,1.84.45,3.07,2.47,3.6,3.48.95,6.99,1.82,10.47,2.71.77.21,1.87.03,1.7,1.43-.06.45.54.33.83.42,3.51,1.16,7.02,2.32,10.56,3.45.95.3,1.76.89,2.32,1.7,1.37,1.93,2.83,3.81,4.29,5.71.86,1.13,1.82,2.11,3.21,2.5.95.27.98.83.45,1.52-.62.83-1.13,1.73-.86,2.92-1.04-.24-1.93-.48-2.83-.68-8.87-2.08-17.74-4.02-26.87-2.02-1.04.24-2.53-.42-3.09,1.16.24,0,.45,0,.65.06s.42.12.6.24c.48.27.89.6,1.28.95,4.94,4.43,10.21,8.48,14.73,13.36,1.34,1.46,2.71,2.86,3.81,4.52.18.27.36.6.92.54-.06-.92-.54-1.73-.95-2.5-2.89-5.3-7.2-9.25-11.81-12.97-.92-.74-1.85-1.49-2.77-2.23-.24-.21-.86-.12-.6-.68.18-.39.54-.21.89-.12,3.33.74,6.58,1.79,9.7,3.09,1.46.6,2.92,1.22,4.31,1.9,1.85.86,3.57,1.9,5.18,3.15,1.04-.06,1.73.65,2.53,1.13,3.72,2.17,7.2,4.7,10.18,7.86,3.04,3.21,2.95,5.56-.3,8.63-2.38,2.23-5.12,4.05-7.74,5.98-5.06,3.69-10.12,7.41-15.24,11.07-1.31.86-2.05,2.32-2.02,3.87-.06,4.73.65,9.37,1.1,14.05.06.71.12,1.43.21,2.44l-7.59-5.09c-.36-.27-.42-.62-.42-1.04.21-6.22-.24-12.5,1.1-18.66.15-.71.15-1.49.77-2.02h0c1.22-1.49,2.53-2.89,3.9-4.23.45-.45.89-.89,1.34-1.37.77-.89,2.05-1.13,3.09-.57,1.85.83,3.54,1.9,4.88,3.48.21.03.42.12.51-.15-6.84-11.9-22.08-25-27.56-26.81,1.76,1.64,3.39,3.15,5,4.7.54.51,1.01,1.07,1.52,1.64,2.38,2.71,2.38,2.8.39,5.74-.39.57-.77,1.16-1.16,1.73l-1.13,1.76h0c-.24.45-.48.86-.71,1.31-.45.89-1.16,1.64-2.02,2.14-1.1.6-1.67-.65-2.35-1.16-2.98-2.17-6.4-3.45-9.61-5.12-.77-.42-1.58-.8-2.44-1.22.33-.6.62-1.19,1.28-1.46.89-1.67,2.38-2.86,3.6-4.26.54-.62,1.25-1.07,1.55-1.87.51-.36.98-.74,1.16-1.4-.42.42-1.04.65-1.16,1.34-.24-.06-.36.09-.48.24-2.23,2.23-4.46,4.49-6.7,6.73-.3.3-.74.68-.77,1.04-.09,1.19-.77.98-1.61,1.07-2.41.3-3.72-.68-4.23-3.04-.18-.89-.74-1.73-1.13-2.56-.36-.71-.65-1.43-.36-2.26.24-.62-.03-.98-.62-1.25-3.57-1.7-7.05-3.6-10.89-4.55-4.85-1.19-9.82-1.79-14.76-2.5-2.05-.3-4.05-.09-5.53,1.67-.33.36-.8.09-1.25-.09-3.12-1.16-6.28-2.26-9.4-3.42-.45-.18-.86-.39-1.4-.12,2.98,3.42,5.8,6.9,8.93,10.15.89.92,1.28,1.73,1.19,2.68l-10.92,9.4c-1.7-.65-3.51-1.04-5.27-1.55-1.07-.3-1.99-.21-2.35,1.04s.12,2.02,1.55,2.38,2.8.62,4.2.92c.45.09,1.07.03.86.83-.21.74-.74.36-1.07.3-1.67-.27-3.3-.6-5-.6-1.61,0-2.23.62-2.14,2.23.03.74.3,1.46.74,2.05.57.74,1.07,1.55,1.64,2.29.51.65.54,1.1-.06,1.76-1.4,1.55-2.71,3.15-4.02,4.76-3.04,3.78-6.31,7.35-9.17,11.31l-.27.18c.15.21.27.09.42-.03ZM149.31,70.66c-1.67-.74-2.44-1.99-2.71-3.84-.54-3.6-1.28-7.2-1.96-10.8-.09-.48-.24-.98-.06-1.46.18-.39.51-.62.92-.68.39-.06.36.36.42.62,1.16,5.21,2.29,10.42,3.45,15.62,0,.18.15.39-.06.54h0ZM191.36,116.73c4.29,5.71,6.34,12.17,6.43,19.25.15,12.77-4.11,23.75-13.75,32.29-5.95,5.27-12.92,7.95-20.98,6.31-6.16-1.25-10.59-4.97-13.81-10.21-3.75-6.16-5.06-12.97-4.7-20.09.45-9.05,3.33-17.26,8.87-24.49.3-.39.62-.74,1.04-1.28.39.89-.09,1.46-.36,2.02-1.49,3.07-3.48,5.89-4.7,9.11-3.96,10.33-4.67,20.68.24,30.86,3.33,6.9,8.66,11.61,16.72,12.14,5.74.39,10.77-1.76,15.33-5.09.83-.62,1.64-1.28,2.38-1.99.09-.06.15-.15.24-.21l.15-.15c.09-.06.15-.15.24-.24.21-.21.27-.51.24-.77.06.03.12.03.18.03.03,0,.09,0,.12-.03,0,0,.03-.03.03-.06.03-.09,0-.15-.03-.24.15.06.24.03.3,0,.03-.03.03-.09.03-.12,0-.06,0-.12-.03-.18.18.06.27.03.33-.06v-.15s0-.06-.03-.09h0v-.03h0v.03c.3.09.65-.06.77-.36l.06-.12c.03-.06.06-.09.09-.15s.06-.09.09-.15c5.53-6.67,8.54-14.34,9.08-22.97.42-6.13-.89-12.23-3.72-17.68-4.91-9.4-14.94-13.39-24.94-9.94-.48.15-.92.36-1.4.48-.36.09-.77.51-1.07.12s-.12-.95.15-1.4c.36-.6.95-.83,1.55-1.07,9.02-3.84,19.02-1.13,24.88,6.67ZM161.25,170.5c1.34.21,2.68.62,4.02.83,3.51.57,6.84-.24,10.12-1.34.27-.12.6-.21.89-.18-4.91,2.32-9.94,2.41-15.03.68ZM176.63,169.55c.06,0,.09.03.15.06l-.39.24c-.12-.24.03-.3.24-.3h0ZM190.05,123.84c-1.07.68-2.14,1.43-3.18,2.17-.68.51-.89.42-1.13-.45-.68-2.56-1.49-5.12-2.35-7.98,3.33.77,5.42,2.83,7.14,5.36.3.45-.12.65-.48.89ZM192.13,127.65c.57-.45.71.09.89.51,1.1,2.98,1.49,6.04,1.46,9.28-1.22-.54-2.11-1.07-2.71-2.23-.89-1.73-2.32-3.12-4.08-3.96,1.52-1.25,2.95-2.47,4.43-3.6h0ZM188.33,156.64c2.65-3.78,4.26-7.95,4.34-12.65,0-.39-.51-1.22.45-1.19.89.03.83.74.74,1.43-.42,3.63-1.67,6.96-3.33,10.18-2.17,4.14-4.76,7.98-8.57,10.8-.09.03-.18.06-.27.09-.06-.39-.15-.71-.21-1.07-.12-.92-.48-1.93-.24-2.77.24-.95,1.49-.6,2.26-.92,1.96-.86,3.63-2.2,4.82-3.9ZM185.71,163.18c-.21-.03-.3.06-.24.3-.27-.06-.36.06-.3.3-.27-.06-.33.06-.3.27l-.95.24c.74-.18.98-.95,1.52-1.37.62-.42.24.15.27.27h0ZM183.98,164.55l-.21.03c.09-.03.12-.15.12-.27.03.09.06.18.09.24h0ZM183.65,164.73c.03.06.03.15.06.21-.33.03-.15-.09-.06-.21h0ZM183.62,164.61h0ZM180.59,155.8c-.36.06-.74.06-.83-.36-.06-.33.15-.62.45-.71h.12c.92-.12,1.82-.51,3.07-.33-.74.77-1.73,1.28-2.8,1.4h0ZM195.53,136.85c.09,1.19.15,2.35-.18,3.51-.33-1.19.15-2.35.18-3.51ZM181.36,97.57c3.51.48,4.97,2.65,5.74,5.98-4.67-1.28-9.22-1.82-13.84-2.02-2.74-.12-5.45.15-8.15.45-.6.06-1.28.18-1.25-.74.03-.71-.57-1.61.62-1.99,5.51-1.73,11.07-2.44,16.87-1.67h0ZM164.64,61.59c0-1.19.15-2.38.45-3.51.83-2.89,3.27-4.29,6.1-3.24,4.29,1.58,6.37,5.12,7.5,9.28.77,2.83.8,5.68-.89,8.27-1.73,2.65-4.7,3.36-7.32,1.55-4.34-2.95-5.62-7.41-5.83-12.35h0ZM161.31,92.75c1.46.24,2.92.48,4.4.68.48.06.65.36.77.74,1.13,3.33,1.1,3.42-2.23,4.52-.77.27-1.55.54-2.44.86-.42-2.08-.8-4.11-1.19-6.13-.18-.62.09-.77.68-.68h0ZM152.14,107.62c.68-.68,1.01.24,1.55.3-.12-3.75-.54-7.5-1.31-11.16-.54-2.56-.92-5.18-1.64-7.68-.62-2.26.92-3.42,2.05-5.24.65,3.21,1.25,6.07,1.82,8.9,2.47,12.35,4.94,24.73,7.35,37.08.27,1.58,1.13,2.98,2.41,3.96,2.53,1.96,2.11,4.49,1.49,6.99s-2.53,3.66-4.97,4.05c-.21.03-.39.12-.54.27,2.89.27,4.58,2.2,6.34,4.11.48.45,1.07.74,1.73.83.89.15,1.61.21,1.49,1.43-.06.68.62.51,1.01.45,1.46-.27,2.83-.95,3.9-1.99,3.9-3.75,5.3-8.27,3.87-13.54-.98-3.6-4.31-6.28-8.27-4.94-.62.21-.86.09-.95-.62-.12-.92-.06-2.23-.62-2.68-1.85-1.37-1.13-3.51-1.87-5.15-.36-.8-.12-1.4.71-1.79.71-.33,1.37-.8,2.08-1.13,2.11-.95,3.01-.77,3.87,1.31,1.73,4.05,5.27,5.86,8.84,7.65.68.33.92.51.42,1.07-.95,1.04-.68,2.08-.3,3.24,2.59,7.68-.77,17.85-7.41,22.53-1.13.8-2.44,1.28-3.78,1.87,1.13,1.46,2.65,2.26,4.31,2.77.95.3,1.34.83,1.49,1.73.27,1.46.57,2.92.92,4.34.21.8.06,1.25-.74,1.58-4.23,1.73-8.24,1.79-12.05-1.13-5.53-4.23-7.98-10.06-8.57-16.78-.18-2.08-.83-4.08-.83-6.16,0-3.07.51-6.07,1.79-8.81,1.22-2.56,1.4-5,.8-7.74-1.22-5.45-2.23-10.95-3.27-16.43-.15-.74-.36-1.19-1.13-1.28-1.99.92-3.69,2.32-5.48,3.63-.42.3-.83.6-1.25.86,1.16-2.5,2.77-4.76,4.76-6.7h0ZM169.4,138.78c-.18-.45-.39-.86.27-1.04.51-.12,1.04-.36,1.37.36.36.77.6,1.55.54,2.14,0,2.47-1.25,4.61-2.83,5.03-.45.12-1.04.33-1.37-.15-.36-.54.3-.74.57-1.01,1.55-1.49,2.32-3.18,1.46-5.33h0ZM174.55,139.5c-.21-1.76-1.19-2.89-2.89-3.27-.39-.09-.68-.09-.65-.57s.36-.62.8-.68c1.16-.18,2.62.68,3.3,2.08.45.89.65,1.87.62,2.86,0,2.53-.74,4.46-2.17,6.16-.48.57-1.07,1.01-1.76,1.34-.33.15-.89.3-1.07-.09-.24-.48.33-.6.62-.8,2.5-1.67,3.54-4.02,3.18-7.02h0ZM48.82,76.32c.18.54-.18,1.01-.71,1.34-2.29,1.37-4.58,2.77-6.87,4.17l7.56-7.56c.27.62-.18,1.37.03,2.05ZM51.86,78.22c-.65-.06-.83-.3-.8-.89.03-1.49,0-2.95,0-4.82l5.39,6.22c-1.67-.18-3.12-.39-4.58-.51h0ZM66.53,86.11c-.18-.21-.6-.51-.39-.68.57-.45,1.16-.86,1.79-1.22l.77.48c5.56,3.45,11.13,6.9,16.72,10.3.92.57.98.92.39,1.76-1.25,1.79-2.38,3.63-3.54,5.45-.39.62-.62.71-1.16.09-4.85-5.39-9.7-10.77-14.58-16.16h0ZM59.18,135.92c-1.64,5.39-4.11,10.3-8.45,14.08-4.26,3.69-9.91,4.29-13.99,1.34-2.83-2.05-4.55-4.97-5.59-8.21-3.07-9.52-1.84-18.69,2.41-27.56,1.61-3.48,3.99-6.55,6.96-8.99,5.39-4.4,11.52-3.87,16.04,1.37,1.22,1.4,2.17,2.98,2.8,4.7.15.39.74.92-.03,1.22-.62.27-1.1,0-1.43-.68-.39-.86-.86-1.67-1.37-2.47-3.93-5.89-10.15-6.9-15.74-2.53-3.57,2.8-5.86,6.52-7.53,10.65-1.73,4.31-2.62,8.81-2.56,12.74.03,5.89.89,10.83,4.02,15.09,1.76,2.38,4.02,3.99,6.99,4.55,1.9.36,3.36-.65,4.97-1.28,6.58-2.62,8.96-8.48,11.19-14.43.27-.68-.06-2.26,1.34-1.76,1.07.39.18,1.46-.03,2.17h0ZM56.85,114.35c.03.45-1.07.45-1.64.74-.21.12-.45.18-.68.27-2.89.92-3.15.83-5.03-1.49-.3-.36-.15-.51.12-.68,1.04-.71,2.02-1.61,3.36-1.46.86-.03,1.73.21,2.47.65.74.48,1.34,1.22,1.4,1.96ZM44.21,139.5c.54-.45.98-.24,1.49,0,2.83,1.25,5.71,1.9,8.78,1.01.12-.09.27-.15.36.03.03.03-.09.15-.15.21-.57,2.08-2.05,3.51-3.42,5.06-.65.68-1.34,1.31-2.08,1.9-1.22,1.01-2.11.95-3.15-.27-1.19-1.34-1.64-3.01-1.96-4.73-.12-.6-.15-1.19-.27-1.76s-.09-1.04.42-1.46h0ZM58.43,125.15c-4.58.74-9.22,1.22-13.87,1.73-1.07.12-2.08.54-2.95,1.22-.48.39-1.13.77-1.76.33-.6-.42-.39-1.07-.27-1.64.24-.95.12-1.93.36-2.89-1.87,1.22-.77,3.15-1.1,4.73-.18.62.21,1.28.86,1.46.09.03.18.03.24.03,1.04.15,1.7.57,1.93,1.64.09.39.54,1.01.92.39,1.34-2.08,3.27-1.22,5.18-1.28-.8,2.53-2.11,4.64-4.2,6.16-1.93,1.4-4.26.8-5.56-1.34-1.49-2.44-1.67-5.15-1.46-7.89.33-4.23,1.34-8.18,4.79-11.1,1.99-1.7,4.26-1.64,5.8.09.57.62.51.89-.3,1.19-1.61.6-3.21,1.22-4.67,2.17-.21.15-.39.3-.74.57,1.01.06,1.67-.33,2.38-.57,4.52-1.43,9.05-2.8,13.48-4.43,3.96-1.46,7.8-.74,11.67.06,1.93.42,3.87.83,5.8,1.16.74.12,1.04.48,1.19,1.22.39,2.02.54,4.11,1.43,6.01.24.54-.21.68-.39,1.01-.33.62-.54,1.43.18,1.67,2.2.74,1.58,2.68,1.93,4.2,0,.21-.03.42-.09.62-1.04-1.55-1.85-2.86-3.04-3.96-1.76-1.61-1.82-1.87-.65-3.96.95-1.73.74-3.15-.48-4.7-1.1,1.37-1.61,2.98-2.2,4.46-.39.98-.71.86-1.31.27-1.73-1.79-3.54-3.45-5.45-5.06-1.84-1.49-3.84-1.93-6.1-1.34-5.74,1.49-11.52,2.8-17.2,4.49-.45.15-1.25.03-1.1.77.18.8.68,1.28,1.73,1.1,4.67-.89,9.34-1.67,14.02-2.5,1.4-.24,2.83-.48,4.23-.74,1.22-.27,2.5.03,3.48.83,2.38,1.93,4.61,4.02,6.34,6.67-1.34-.54-2.71-1.04-4.02-1.64-2.77-1.4-5.95-1.79-9.05-1.22h0ZM73.58,134.02c-.89-1.13-1.99-2.14-3.12-3.33,1.37-.12,2.26.21,2.98,1.07.33.39.65.74,1.04,1.07.48.42.95,1.19,1.52,1.04.62-.15.24-1.04.42-1.58s.15-1.25.65-1.4c.6-.18.74.62,1.13.98.39.39.71.83.95,1.31.77,1.49.27,2.17-1.31,2.47-1.9.39-3.12-.21-4.26-1.64h0ZM110.84,134.67c-2.23,1.13-4.29,2.65-6.37,4.08-3.69,2.5-7.68,3.09-11.99,2.11-2.44-.57-4.97-.71-7.5-1.07.03,1.07.92,1.52,1.52,2.32-1.7.12-3.21.21-4.55-1.01-1.28-1.13-2.53-2.29-4.4-3.39,2.26-.12,4.05.45,5.83.71,3.81.6,7.59,1.37,11.43,1.7,2.98.27,5.56-.6,7.92-2.32,4.05-2.98,7.5-6.58,11.04-10.12.15-.15.21-.45.51-.51-.51,2.86-.27,5.86-3.42,7.5h0ZM85.87,122.68c.3-4.05,1.79-7.59,5-10.21,2.95-2.38,5.71-1.58,7.26,1.9.74,1.67.89,3.42.92,5.21.03,3.09-.89,6.1-2.65,8.66-.83,1.31-2.02,2.35-3.45,2.98-2.14.92-3.96.48-5.42-1.34-1.67-2.14-1.84-4.64-1.67-7.2ZM132.29,101.97l.39.18-3.99,9.4c-2.14-4.55,1.25-6.84,3.6-9.58h0ZM124.55,121.67c.54.3.62.54.39,1.13-1.4,3.6-2.71,7.2-4.08,10.8-.48,1.46-1.73,2.5-3.21,2.77-1.19.24-1.82-.09-1.76-1.4.15-2.92.12-5.86.42-8.75.45-4.23-1.22-7.08-4.85-9.17-4.02-2.32-8-4.76-11.78-7.44-2.89-2.02-5.56-1.82-8.48-.42-.57.27-1.13.54-1.93.92,1.67-3.57,3.07-6.81,6.7-8.75,6.28-3.33,12.32-7.08,18.48-10.65.42-.24.86-.42,1.34-.62-.15,2.56-1.16,4.26-3.66,5.33-5.3,2.29-10.42,4.94-15.62,7.47-.6.3-1.46.51-1.43,1.31.03.71.86.86,1.4,1.16,9.52,5.27,18.72,10.95,28.09,16.31h0ZM114.79,100.21v12.86l-9.85-5.71c-.51-.3-1.07-.54-.18-1.07,3.24-1.96,6.49-3.93,10.03-6.07ZM115.78,77.42c2.26-1.55,1.64-1.4,3.04.6.33.51.6,1.01.86,1.55,2.41,2.95,2.38,3.27-.74,5.12-9.64,5.62-19.25,11.25-28.9,16.87-1.31.71-2.26,1.93-2.68,3.33-1.9,5.68-3.87,11.37-5.89,17.02-.74,2.11-.36,4.2.03,6.49-2.14-2.32-2.86-5-3.27-7.8-.3-1.96-.54-3.93-.98-5.83-.24-1.07.03-1.85.6-2.74,2.68-4.08,5.33-8.21,7.95-12.32,1.1-1.76,2.41-3.21,4.2-4.29,1.61-.95,3.12-2.05,4.7-3.09,1.4-1.46,3.12-2.47,4.79-3.57.57-.36,1.1-.71,1.67-1.1,4.82-3.42,9.7-6.87,14.64-10.24h0ZM70.28,82.48c5.39,3.3,10.8,6.58,16.16,9.97,1.34.83,2.29.74,3.54-.21,3.15-2.38,6.43-4.61,9.67-6.9,2.68-1.9,2.71-2.26.68-4.85,1.37.18,2.17.92,2.62,2.23.42,1.22-.39,1.85-1.19,2.44-4.14,2.95-8.33,5.86-12.47,8.84-.77.54-1.34.51-2.11.03-5.89-3.63-11.81-7.2-17.71-10.8-.74-.42-1.34-1.04-1.73-1.82-2.05-4.58-3.45-9.34-5.24-14.16,1.13.33,1.49.95,1.79,1.79,1.4,3.9,2.89,7.77,4.31,11.64.33.77.92,1.43,1.67,1.82ZM53.22,61.23c.77-.89,1.79-.74,2.74-.57,2.44.48,4.88,1.01,7.32,1.55.45.09,1.19-.03,1.07.86.24,3.75.21,3.75-3.3,2.23-2.62-1.13-5.27-2.2-7.92-3.27-.89-.36-.33-.57.09-.8ZM42.39,60.04c-.12-.15-.24-.3-.33-.45l.15-.33c1.46.54,2.95,1.04,4.4,1.61,4.37,1.67,8.81,3.3,13.12,5.18.98.36,1.73,1.16,2.02,2.17,1.25,3.96,2.56,7.92,3.84,11.87.12.33.15.68.24,1.01s.09.62-.18.83c-.39.3-.65-.09-.89-.3-1.43-1.31-2.86-2.62-4.23-3.96-6.1-5.89-12.14-11.78-18.15-17.65h0Z" style="fill: #030303; stroke-width: 0px;"/>
  <path d="M166.51,110.06c-.6.27-1.19.51-1.55,1.07-.27.45-.48.95-.15,1.4s.71-.03,1.07-.12c.48-.12.92-.33,1.4-.48,10-3.45,20.03.57,24.94,9.94,2.86,5.45,4.14,11.55,3.72,17.68-.54,8.6-3.51,16.31-9.08,22.97-.03.03-.06.09-.09.15s-.06.09-.09.15l-.06.12c-.15.3-.48.45-.77.36,0,.03.03.06.03.09v.15c-.03.09-.15.12-.33.06.03.06.03.12.03.18,0,.03,0,.09-.03.12-.06.06-.15.06-.3,0,.03.09.03.15.03.24,0,.03-.03.03-.03.06-.03.03-.06.03-.12.03s-.12,0-.18-.03c.06.27-.03.57-.24.77-.06.09-.15.15-.24.24l-.15.15c-.09.06-.18.15-.24.21-.74.71-1.55,1.37-2.38,1.99-4.55,3.33-9.58,5.48-15.3,5.09-8.06-.54-13.36-5.24-16.72-12.14-4.91-10.15-4.2-20.53-.24-30.83,1.25-3.21,3.21-6.01,4.7-9.11.27-.57.74-1.13.36-2.02-.42.54-.74.89-1.04,1.28-5.53,7.23-8.39,15.44-8.87,24.49-.36,7.11.95,13.93,4.7,20.09,3.21,5.27,7.65,8.99,13.81,10.21,8.06,1.64,15.03-1.04,20.98-6.31,9.64-8.54,13.9-19.52,13.75-32.29-.09-7.08-2.14-13.54-6.43-19.25-5.92-7.83-15.92-10.53-24.91-6.7Z" style="fill: #12dac6; stroke-width: 0px;"/>
  <path d="M59.24,133.75c-1.37-.51-1.07,1.07-1.34,1.76-2.26,5.98-4.64,11.81-11.19,14.43-1.61.65-3.04,1.64-4.97,1.28-2.98-.57-5.24-2.17-6.99-4.55-3.15-4.26-3.99-9.2-4.02-15.09-.06-3.93.83-8.42,2.56-12.74,1.64-4.14,3.96-7.86,7.53-10.65,5.59-4.37,11.81-3.36,15.74,2.53.51.77.98,1.61,1.37,2.47.33.65.8.92,1.43.68.77-.33.15-.86.03-1.22-.65-1.73-1.58-3.3-2.8-4.7-4.52-5.24-10.65-5.77-16.04-1.37-2.95,2.44-5.33,5.51-6.96,8.99-4.26,8.87-5.48,18.06-2.41,27.56,1.04,3.27,2.77,6.19,5.59,8.21,4.08,2.95,9.73,2.35,13.99-1.34,4.34-3.78,6.81-8.69,8.45-14.08.18-.71,1.07-1.79.03-2.17Z" style="fill: #12dac6; stroke-width: 0px;"/>
  <path d="M64.71,81.59c.24.21.48.6.89.3.27-.18.24-.51.18-.83s-.12-.68-.24-1.01c-1.28-3.96-2.59-7.89-3.84-11.87-.3-1.01-1.04-1.82-2.02-2.17-4.31-1.87-8.72-3.51-13.12-5.18-1.46-.57-2.92-1.07-4.4-1.61l-.15.33c.09.15.21.3.33.45,6.04,5.89,12.05,11.75,18.09,17.62,1.46,1.4,2.89,2.68,4.29,3.99Z" style="fill: #12dac6; stroke-width: 0px;"/>
  <path d="M99.44,88.79c-1.67,1.07-3.39,2.11-4.79,3.57.54.36,1.04.74,1.52,1.16.8.83,1.46.8,2.41.15,4.7-3.21,9.46-6.31,14.22-9.46,2.29-1.52,4.76-2.83,6.84-4.64-.24-.54-.54-1.04-.86-1.55-1.43-1.96-.77-2.14-3.04-.6-4.94,3.36-9.82,6.78-14.67,10.27-.54.39-1.07.74-1.64,1.1Z" style="fill: #12dac6; stroke-width: 0px;"/>
  <path d="M163.86,101.23c-.03.92.65.8,1.25.74,2.71-.3,5.42-.57,8.15-.45,4.61.21,9.17.74,13.84,2.02-.8-3.33-2.23-5.51-5.74-5.98-5.77-.77-11.37-.06-16.84,1.67-1.22.39-.62,1.28-.65,1.99Z" style="fill: #12dac6; stroke-width: 0px;"/>
  <path d="M122.83,96.85c2.8-2.26,5.71-4.4,8.57-6.58-1.34-1.58-3.04-2.62-4.88-3.48-1.04-.57-2.32-.33-3.09.57-.45.45-.89.89-1.34,1.37-1.37,1.34-2.68,2.74-3.93,4.23h0c.89,1.19,1.87,2.32,2.65,3.54.65.98,1.07,1.13,2.02.36Z" style="fill: #12dac6; stroke-width: 0px;"/>
  <path d="M154.1,109.83h0c-.3-.6.12-1.37-.48-1.87-.54-.03-.86-.98-1.55-.3-1.96,1.93-3.54,4.2-4.7,6.67.42-.27.83-.57,1.25-.86,1.82-1.31,3.48-2.71,5.48-3.63Z" style="fill: #12dac6; stroke-width: 0px;"/>
  <path d="M162.17,142.65c1.04-.65,1.82-2.38,1.55-3.63-.15-.74-.48-1.46-1.28-1.64s-1.55.03-1.93.89h0c-1.19,1.01-1.04,2.35-.71,3.6.24,1.04,1.46,1.34,2.38.77ZM160.53,138.33s.03.06.06.06c.77-.12,1.61-.98,2.29.15.48.77.03,2.77-.77,3.39-.36.27-.74.51-1.22.27-.68-.3-.8-.92-.89-1.58-.12-.83.65-1.46.54-2.29h0Z" style="fill: #030303; stroke-width: 0px;"/>
  <path d="M41.05,123.81c-.57-.06-.33.68-.54,1.04-.06.09-.09.18-.06.27.09.74-.95,1.93.09,2.11.98.15.68-1.37,1.04-2.05-.06-.57.15-1.31-.54-1.37Z" style="fill: #030303; stroke-width: 0px;"/>
  <path d="M92.89,115.75c1.31.92,1.76,2.32,2.23,3.72.27.74.54,1.61,1.76,1.37s.83-1.13.92-1.76c0-1.22-.27-2.41-.8-3.54-.51-1.13-1.43-1.73-2.62-1.96-.74-.15-1.13.27-1.34.86-.12.42-.77.86-.15,1.31Z" style="fill: #030303; stroke-width: 0px;"/>
  <path d="M96.4,121.79c-.65,0-.92.51-1.19.98-.77,1.31-1.46,2.83-2.83,3.54-1.31.68-.92,1.4-.42,2.23.57.95,1.43.83,2.17.27,2.02-1.52,2.92-3.66,3.42-6.04.03-.86-.51-.98-1.16-.98Z" style="fill: #030303; stroke-width: 0px;"/>
  <path d="M90.51,128.46c.48-.6-.03-.95-.48-1.31-1.16-.86-1.93-2.14-2.17-3.57-.06-.3-.03-.83-.48-.8-.6.06-.24.62-.33.95v.3h.03c-.03.21-.03.39,0,.6.24,1.43.68,2.77,1.76,3.81.51.51,1.16.65,1.67.03Z" style="fill: #030303; stroke-width: 0px;"/>
  <path d="M88.25,120.12c.8-1.64,1.58-3.27,3.04-4.46.33-.27.83-.6.36-1.04-.39-.39-.86-.09-1.19.24-1.9,1.73-2.89,3.87-3.21,6.61.83-.39.83-.95,1.01-1.34Z" style="fill: #030303; stroke-width: 0px;"/>
  <path d="M90.42,121.97c0,.83-.09,1.9,1.58,2.05-1.43-1.9-.77-3.33.51-4.7-1.25.09-2.08,1.1-2.08,2.65Z" style="fill: #030303; stroke-width: 0px;"/>
  <polygon points="77.24 148.18 71.5 152.68 70.19 159.28 77.98 157.77 80.75 156.01 134.97 156.01 83.79 152.47 77.24 148.18" style="fill: #12dac6; stroke-width: 0px;"/>
  <polygon points="90.96 77.06 111.46 55.37 110.45 54.68 86.43 77.3 90.96 77.06" style="fill: #030303; stroke-width: 0px;"/>
  <polygon points="144.94 43.47 157.97 45.04 158.98 41.59 143.66 42.42 144.94 43.47" style="fill: #030303; stroke-width: 0px;"/>
</svg>