<svg xmlns="http://www.w3.org/2000/svg" viewBox="-5.075000000000003 68.08500000000001 585.1499938964844 438.82999897003174"> <svg xmlns="http://www.w3.org/2000/svg" xmlns:xlink="http://www.w3.org/1999/xlink" version="1.1" id="Layer_1" x="172.5" y="138.085" viewBox="47.5 72.31815338134766 772.8999633789062 629.3989868164062" xml:space="preserve" height="187.296875" width="230" preserveAspectRatio="xMinYMin" enable-background="new 0 0 926.1 768" style="overflow: visible;"><path class="st0" d="M513.4,260.7l48,237.2c0,0-11.9,33.3-7.4,40.1s13.6,13.6,13.6,13.6l40.1,7.3l18.1-10.2l1.1-28.8L593,503  l-38.4-179L513.4,260.7z" style="fill: #FDFEFE;"></path><path class="st1" d="M254.6,283.2c4.7-1.6,6.9-7.2,8.3-14.1l-29.1-4.4l-20.9-3.7l-7.3,4.5l-0.5,2.4  C221.9,275.5,238.6,287.6,254.6,283.2z" style="fill: #12dac6; fill-opacity: 1;"></path><path class="st0" d="M301.6,514.2c2.2-2.5,2.9-5.9,2-9c-2-14-8-25-12-39c-2.3-8.2-5.4-16-10.3-22.5l-1.2,1.7l-36.7-5.6l-72.3,18.1  l27.7,35l55.4,3.4l33.2,23.2C290.9,515.3,297,517.2,301.6,514.2z" style="fill: #FDFEFE;"></path><path class="st2" d="M621.8,238.7l-34.5-32.2l-60-1.7L532,228l-11.3,4.5l-16.4,26l-62.7-11.3l-44,1.4l-60.4,59.1l-11.9,26.4  l-61.5-65l-0.8-0.1c-1.4,6.9-3.6,12.5-8.3,14.1c-16,4.4-32.7-7.6-49.6-15.3l-1.7,7.5l4.5,11.3l-41.8,41.8l-3.4,10.2l12.4,5.1l52-9  l75.1,80.2l-20.8,28.8c4.9,6.5,7.9,14.3,10.3,22.5c4,14,10,25,12,39c0.9,3.1,0.2,6.5-2,9c-4.6,3.1-9,3.8-12.5,7.9l16.5,15.8l35,1.8  h114L497,403.6l52.5-82.4l49.1,11.3l36.1-29.4l1.7-34.5L621.8,238.7z" style="fill: #da09b3; fill-opacity: 1;"></path><ellipse class="st0" cx="169.6" cy="480.2" rx="31.8" ry="43.3" style="fill: #FDFEFE;"></ellipse><ellipse class="st0" cx="601.9" cy="523" rx="49.5" ry="67.4" style="fill: #FDFEFE;"></ellipse><ellipse class="st0" cx="607.1" cy="276.5" rx="28.6" ry="42.4" style="fill: #FDFEFE;"></ellipse><path class="st1" d="M755.1,578.5c15.2-1.6,30.4-3.8,45.7-4.9c9.1-0.6,13.9-6.1,19.6-13c-20.3,0-39.6-0.2-58.8,0.2  c-5,0.1-5.3-1.7-4.8-5.7c2.1-19.1,0.7-38.4-4.3-56.9c-0.3-1.3-0.8-2.5-1.3-3.7c-0.1-0.3-0.3-0.5-0.2-0.6c-1,0.7-1.4,1.9-1.1,3  c4.1,24.7,2.8,50-3.6,74.3c-10.7,40-30.9,73.9-64.8,98.5c-28.2,20.4-59.6,29-94,21c-40.7-9.6-66.8-36.5-83.1-74.1  c-0.8-1.9-1.6-3.7-2.5-5.6c-2.3,2,0.1,3.7,0.6,5.4c1,3.2,1.3,4.6-3.1,5.4c-45.2,8-90.6,15.2-135.9,22.5c-1.6,0.3-2.9,0.5-3.9-1.4  c28-12.2,56.2-24,82.8-39.9c-33.5-0.6-66.6,3.4-99.8,5.8c-33.5,2.3-66.9,6.3-100.5,7.8c19.5-10.9,40.4-18.7,61.8-28  c-12.3-1.8-23.6-0.9-35.1-2.1c0.5-2.5,1.1-4.7,1.5-7s1.7-4.2,1-7.4c-21.2,28.4-47.5,46.7-83.7,43c-36.8-3.7-57.7-27.9-71.1-60.2  c-0.1,1.6-0.1,3.3,0.1,4.9c0.7,6,0.7,6-5.5,6H47.7c-0.1,0.6-0.1,1.2-0.2,1.8c2.8,2.6,5.6,5.2,8.3,7.8c1.7,1.6,3.9,2.6,6.3,2.6  c18.1,1,36.3,2.1,54.4,2.8c3.3-0.1,6.4,1.7,7.9,4.7c8.7,14.7,21.7,26.4,37.3,33.5c4.7,2.2,9.6,4,14.9,6.2c-8.6,2.9-17,5-26,9.2  l218.9-14c0.1,0.5,0.1,0.9,0.2,1.4c-43.2,17.1-87.9,30.3-132,45c26.2-2.2,52.4-4.6,78.5-7.2c27.7-2.8,55.3-5.7,83-8.6  c13.2-1.4,26.5-4.1,39.7-3.8c26.8,0.6,53.5,2.9,80.3,4.4c1.3-0.1,2.6,0.5,3.5,1.5c3.7,4.6,7.5,9.2,11.6,14.1  c-27.1,5.1-54.1,9-80.7,14.8c4.8-0.8,9.7-1.2,14.6-1.5c21.8-1.7,43.5-3.2,65.2-5.2c5.6-0.5,9.9,0.4,14.6,3.9  c28.6,21.3,60.4,27.3,95,18.8c24.8-6.1,45.4-19.4,63-37.5c1.7-2,4.2-3.3,6.8-3.7c18.5-2,37-4.1,55.6-6.2c12.3-1.4,24.6-3,36.9-4.4  c-26.4-0.8-52.7-0.8-79-0.8c-1.6,0-3.8,0.9-4.7-0.5c-1-1.7,1.2-2.7,2.1-4.1c1-1.5,2.2-3,3.2-4.5c9.4-13.3,18.8-26.7,28.2-40  c2.1-3,2.1-6.5,1.2-9.6s-3.8,1.3-5.7-0.8C752,583.4,749.8,579.1,755.1,578.5z" style="fill: #12dac6; fill-opacity: 1;"></path><path class="st1" d="M361.3,284.5c-1,2.7-3.4,4.2-5.2,6.3c-4,4.8-9.1,8.7-12.1,14.3c9.6,4.8,19.2,9.5,28.8,14.4  c4.1,2.1,8.4,4.1,12,6.9s6.3,2.6,9.2-0.7c0.8-1,1.6-2.1,3.2-2l0,0l3.8-5.9c1.3-2,2.5-3.9,3.9-5.8c6.7-9.9,6.7-10.1-1.3-19.3  c-1.6-1.9-3.3-3.8-5.1-5.5c-5.4-5.2-11-10.3-16.8-15.8c18.4,6.1,69.5,50.1,92.6,90.1c8.7-6.7,17.3-13.4,26-20.1  c10.2-7.9,12.9-15.8,9.6-28.4c-3.8-14.7-12.4-26.4-23.3-36.6c-5.4-4.2-11.2-7.8-17.4-10.6c-4.8-2.3-9.6-4.3-14.5-6.4  c-10.5-4.4-21.5-7.9-32.6-10.4c-1.2-0.3-2.4-0.9-3,0.4c-0.9,1.9,1.1,1.7,2,2.3c3.1,2.5,6.2,5,9.3,7.5c15.5,12.5,30,25.9,39.7,43.6  c1.4,2.6,3,5.3,3.2,8.4c-1.8,0.2-2.5-0.9-3.1-1.8c-3.7-5.6-8.3-10.3-12.8-15.2c-15.2-16.4-33-30-49.5-44.9c-1.3-1.3-2.7-2.3-4.3-3.2  c-0.6-0.3-1.3-0.6-2-0.8c-0.7-0.2-1.5-0.2-2.2-0.2c-5.4,5.1-11,9.9-15.9,15.5c-5.8,6.5-12,12.7-18.1,19  C364.6,281.9,363.1,283.3,361.3,284.5z" style="fill: #12dac6; fill-opacity: 1;"></path><path class="st1" d="M582.8,306.3c2,1.3,4.2,3.6,6.6,1.1c2.7-2.7-0.6-4.1-1.8-5.7c-13.1-16.5-18.7-34.8-12.8-55.5  c1.6-5.6,0.3-9.6-2.8-13.8c-6.4-8.6-14-16-21.8-23.3c-1.7-1.6-3.6-3-4.3-5.4h-10.3c0.7,1,1,1.6,1.4,2c11.7,15.6,20.1,32.2,15.6,52.6  c-0.9,4.2,0.3,8.1,2,12c3.7,8.4,9.2,15.7,14.1,23.5C572.7,298.7,577.5,302.9,582.8,306.3z" style="fill: #12dac6; fill-opacity: 1;"></path><path class="st3" d="M93,422.9c10.6-4,21.1-7.9,31.6-12c3-1.2,3.9-0.7,4.4,2.4c1.3,6.9,3.1,13.8,4.8,21.2  c11.3-19,22.3-37.4,33.2-55.8c2-3.4,4.4-5.5,8.3-6.3c4.7-1,9.3-2.5,13.9-3.7c3.5-0.9,5.5-3,5.7-6.6s-1.9-5.5-4.9-6.6  c-1.1-0.4-2.2-1-3.6-1.6c11.4-4.8,22.6-9.5,33.6-14.2l73.3,84.7l-7.9,12c-5.7-10.8-11.4-20.8-19.4-29.2  c-18.6-19.6-41-27.4-67.4-20.5c-18.9,4.9-33.6,16.5-45.6,31.5c-17.8,22.4-27.7,48.2-30.7,76.6c-2.8,27.2,1.5,53,16.6,76.4  c24.8,38.6,70.2,46.2,106.1,17.7c15.7-12.5,25.6-29,32.7-47.5c2.6-6.9,4.6-14,7.1-21.8c7.3,6.3,14.4,12.1,21.1,18.3  c2.9,2.8,6.7,4.4,10.7,4.4c6,0.2,12,0.8,17.9,1.3c10.3,0.8,20.6,1.5,29.9,6.7c2.8,1.5,6,2.2,9.1,2.2c38.7,0.7,77.3,1.4,115.9,2.2  c2.9,0.1,3.6-0.9,3.8-3.6c0.3-5.2,0.9-10.3,1.5-15.4c3.6-30.5,14.2-59.7,31-85.4c0.8-1.3,1.4-2.7,3.3-2.5c3.2,0.4,6.4,0.7,9.8,1  c-0.3,0.6-0.6,1.2-1,1.8c-26.8,37.1-37.9,78.2-32.1,123.7c3.7,28.9,15.2,54.3,35.7,75.2c23,23.5,50.9,34.9,83.9,30.8  c29.7-3.7,54-18.2,73.7-40.2c32-35.9,46.3-78.1,42.8-126.2c-2.2-30-12.4-56.9-31.8-80.2c-5.2-6.3-11.5-11.5-18.1-17.3l16.6-6.8  c-7.1-5.3-14.8-9.8-22.9-13.2c-19-8.3-39-11.8-59.7-12c-1.5,0-3.8,1.2-4.5-1.7c-1.9-7.7-4-15.4-6-23.1c-0.3-1.3-0.1-2.7,0.6-3.9  c4.8-8.3,2.4-15.3-3.8-21.6c0.2-0.3,0.4-0.6,0.6-0.9c26.8-21.4,33.8-51.2,19.4-82.4c-4.1-8.9-9.2-17.2-14.3-25.7  c13.9-3.2,20.1-16.5,14-29.2c-2.6-5.6-6.9-8.4-13-8.2c-5.9,0.2-9.3,3.9-11.4,9c-1.6,3.7-1.8,7.6-1.8,12.4  c-19.6-23.2-42.2-40-73-44.2c7.6,8.6,14.8,17.5,21.5,26.8c2.6,3.6,8.3,7.9,6,11.4c-2.6,3.8-9.2,1.7-14.1,0.8  c0.7,2.4,2.6,3.8,4.3,5.4c7.8,7.3,15.4,14.7,21.8,23.3c3.1,4.2,4.4,8.2,2.8,13.8c-5.9,20.7-0.2,39,12.8,55.5c1.2,1.5,4.5,3,1.8,5.7  c-2.4,2.5-4.6,0.2-6.6-1.1c-5.4-3.4-10.2-7.6-14.2-12.4c-1.8-0.6-3.3-1.8-4.4-3.3c-4.6-5.5-8.9-11.3-13.8-16.4  c-4.7-5-5.6-10.1-4.5-16.8c3.6-20.8-3.2-38.3-18.6-52.6c-3.8-3.6-8.2-4.5-13.7-3.5c5,7,11.1,12.8,15.7,20.9  c-6.7-2.2-13.4-1.7-17.8-7.1c-4.1-5-8.1-10.1-12.1-15.2c-2.1-2.5-1.8-6.3,0.8-8.4c0.5-0.4,1.1-0.7,1.7-1c1.3-0.5,2.2-1.6,2.4-2.9  c1.1-4.2,2-8.4,3.1-12.6c0.7-2.7,0-4.4-2.9-5.2c-6.9-1.9-13.7-3.7-20.5-5.8c-2.6-0.8-3.4,0.4-4.6,2.3s-0.5,6.8-3.6,5.4  c-2.4-1,0.7-4.5,1.7-6.7c4.2-9.7,5.7-19.1,0.3-29.1c-3.7-6.8-6.1-14.3-9.1-21.5c-0.7-1.7-1.2-3.1-0.3-5.1  c6.2-14.2-1.3-30.7-16.2-35.8c-7.8-2.7-15.2-1.5-21.4,4.1c-6,5.5-6.3,12.6-4.1,19.8c4.5,15.2,21.4,27.2,36.6,18.2  c3.6,9.1,7.1,18.2,10.8,27.2c2.2,4.9,2.1,10.6-0.3,15.4c-1.2,2.5-2.3,5.1-3.3,7.8c-0.8,2.5-2.1,3.2-4.7,2.4  c-4.8-1.4-9.9-2.6-14.8-1.6c-6.5,1.4-12.4-0.4-18.4-2.2c-10.3-3-20.3-7.3-30.9-9.4c-5.6-1.1-10.2,2.3-11.1,8  c-1,6.2,1.5,10.3,8.3,12.1c11.7,3.2,23.5,6.1,35.2,9.1c2.6,0.7,6.3,0.1,5.7,4.8c-0.2,1.5,1.8,1.1,2.8,1.4  c11.8,3.9,23.6,7.8,35.5,11.6c3.2,1,5.9,3,7.8,5.7c4.6,6.5,9.5,12.8,14.4,19.2c2.9,3.8,6.1,7.1,10.8,8.4c3.2,0.9,3.3,2.8,1.5,5.1  c-2.1,2.8-3.8,5.8-2.9,9.8c-3.5-0.8-6.5-1.6-9.5-2.3c-29.8-7-59.6-13.5-90.3-6.8c-3.5,0.8-8.5-1.4-10.4,3.9c0.8,0,1.5,0,2.2,0.2  c0.7,0.2,1.4,0.4,2,0.8c1.6,0.9,3,2,4.3,3.2c16.6,14.9,34.3,28.5,49.5,44.9c4.5,4.9,9.1,9.6,12.8,15.2c0.6,0.9,1.2,2,3.1,1.8  c-0.2-3.1-1.8-5.8-3.2-8.4c-9.7-17.8-24.2-31.1-39.7-43.6c-3.1-2.5-6.2-5-9.3-7.5c-0.8-0.7-2.9-0.4-2-2.3c0.6-1.3,1.8-0.7,3-0.4  c11.2,2.5,22.1,6,32.6,10.4c4.9,2,9.8,4.1,14.5,6.4c6.2,2.9,12,6.4,17.4,10.6c3.5-0.2,5.8,2.2,8.5,3.8c12.5,7.3,24.2,15.8,34.2,26.4  c10.2,10.8,9.9,18.7-1,29c-8,7.5-17.2,13.6-26,20.1c-17,12.4-34,24.9-51.2,37.2c-4.4,2.9-6.9,7.8-6.8,13  c-0.2,15.9,2.2,31.5,3.7,47.2c0.2,2.4,0.4,4.8,0.7,8.2l-25.5-17.1c-1.2-0.9-1.4-2.1-1.4-3.5c0.7-20.9-0.8-42,3.7-62.7  c0.5-2.4,0.5-5,2.6-6.8l0,0c4.1-5,8.5-9.7,13.1-14.2c1.5-1.5,3-3,4.5-4.6c2.6-3,6.9-3.8,10.4-1.9c6.2,2.8,11.9,6.4,16.4,11.7  c0.7,0.1,1.4,0.4,1.7-0.5c-23-40-74.2-84-92.6-90.1c5.9,5.5,11.4,10.6,16.8,15.8c1.8,1.7,3.4,3.6,5.1,5.5c8,9.1,8,9.4,1.3,19.3  c-1.3,1.9-2.6,3.9-3.9,5.8l-3.8,5.9l0,0c-0.8,1.5-1.6,2.9-2.4,4.4c-1.5,3-3.9,5.5-6.8,7.2c-3.7,2-5.6-2.2-7.9-3.9  c-10-7.3-21.5-11.6-32.3-17.2c-2.6-1.4-5.3-2.7-8.2-4.1c1.1-2,2.1-4,4.3-4.9c3-5.6,8-9.6,12.1-14.3c1.8-2.1,4.2-3.6,5.2-6.3  c1.7-1.2,3.3-2.5,3.9-4.7c-1.4,1.4-3.5,2.2-3.9,4.5c-0.8-0.2-1.2,0.3-1.6,0.8c-7.5,7.5-15,15.1-22.5,22.6c-1,1-2.5,2.3-2.6,3.5  c-0.3,4-2.6,3.3-5.4,3.6c-8.1,1-12.5-2.3-14.2-10.2c-0.6-3-2.5-5.8-3.8-8.6c-1.2-2.4-2.2-4.8-1.2-7.6c0.8-2.1-0.1-3.3-2.1-4.2  c-12-5.7-23.7-12.1-36.6-15.3c-16.3-4-33-6-49.6-8.4c-6.9-1-13.6-0.3-18.6,5.6c-1.1,1.2-2.7,0.3-4.2-0.3  c-10.5-3.9-21.1-7.6-31.6-11.5c-1.5-0.6-2.9-1.3-4.7-0.4c10,11.5,19.5,23.2,30,34.1c3,3.1,4.3,5.8,4,9L160,329.2  c-5.7-2.2-11.8-3.5-17.7-5.2c-3.6-1-6.7-0.7-7.9,3.5s0.4,6.8,5.2,8s9.4,2.1,14.1,3.1c1.5,0.3,3.6,0.1,2.9,2.8  c-0.7,2.5-2.5,1.2-3.6,1c-5.6-0.9-11.1-2-16.8-2c-5.4,0-7.5,2.1-7.2,7.5c0.1,2.5,1,4.9,2.5,6.9c1.9,2.5,3.6,5.2,5.5,7.7  c1.7,2.2,1.8,3.7-0.2,5.9c-4.7,5.2-9.1,10.6-13.5,16c-10.2,12.7-21.2,24.7-30.8,38l-0.9,0.6C92.1,423.7,92.5,423.3,93,422.9z   M532.7,296.3c-5.6-2.5-8.2-6.7-9.1-12.9c-1.8-12.1-4.3-24.2-6.6-36.3c-0.3-1.6-0.8-3.3-0.2-4.9c0.6-1.3,1.7-2.1,3.1-2.3  c1.3-0.2,1.2,1.2,1.4,2.1c3.9,17.5,7.7,35,11.6,52.5C532.9,295.1,533.4,295.8,532.7,296.3L532.7,296.3z M674,451.1  c14.4,19.2,21.3,40.9,21.6,64.7c0.5,42.9-13.8,79.8-46.2,108.5c-20,17.7-43.4,26.7-70.5,21.2c-20.7-4.2-35.6-16.7-46.4-34.3  c-12.6-20.7-17-43.6-15.8-67.5c1.5-30.4,11.2-58,29.8-82.3c1-1.3,2.1-2.5,3.5-4.3c1.3,3-0.3,4.9-1.2,6.8  c-5,10.3-11.7,19.8-15.8,30.6c-13.3,34.7-15.7,69.5,0.8,103.7c11.2,23.2,29.1,39,56.2,40.8c19.3,1.3,36.2-5.9,51.5-17.1  c2.8-2.1,5.5-4.3,8-6.7c0.3-0.2,0.5-0.5,0.8-0.7l0.5-0.5c0.3-0.2,0.5-0.5,0.8-0.8c0.7-0.7,0.9-1.7,0.8-2.6c0.2,0.1,0.4,0.1,0.6,0.1  c0.1,0,0.3,0,0.4-0.1c0,0,0.1-0.1,0.1-0.2c0.1-0.3,0-0.5-0.1-0.8c0.5,0.2,0.8,0.1,1,0c0.1-0.1,0.1-0.3,0.1-0.4c0-0.2,0-0.4-0.1-0.6  c0.6,0.2,0.9,0.1,1.1-0.2c0-0.1,0-0.2,0-0.2c0-0.1,0-0.2,0-0.3c0-0.1,0-0.2-0.1-0.3l0,0c0,0,0-0.1,0-0.1l0,0c0,0,0,0.1,0,0.1  c1,0.3,2.2-0.2,2.6-1.2l0.2-0.4c0.1-0.2,0.2-0.3,0.3-0.5s0.2-0.3,0.3-0.5c18.6-22.4,28.7-48.2,30.5-77.2c1.4-20.6-3-41.1-12.5-59.4  c-16.5-31.6-50.2-45-83.8-33.4c-1.6,0.5-3.1,1.2-4.7,1.6c-1.2,0.3-2.6,1.7-3.6,0.4s-0.4-3.2,0.5-4.7c1.2-2,3.2-2.8,5.2-3.6  C620.7,415.8,654.3,424.9,674,451.1z M572.8,631.8c4.5,0.7,9,2.1,13.5,2.8c11.8,1.9,23-0.8,34-4.5c0.9-0.4,2-0.7,3-0.6  C606.8,637.3,589.9,637.6,572.8,631.8z M624.5,628.6c0.2,0,0.3,0.1,0.5,0.2l-1.3,0.8C623.3,628.8,623.8,628.6,624.5,628.6  L624.5,628.6z M669.6,475c-3.6,2.3-7.2,4.8-10.7,7.3c-2.3,1.7-3,1.4-3.8-1.5c-2.3-8.6-5-17.2-7.9-26.8c11.2,2.6,18.2,9.5,24,18  C672.2,473.5,670.8,474.2,669.6,475z M676.6,487.8c1.9-1.5,2.4,0.3,3,1.7c3.7,10,5,20.3,4.9,31.2c-4.1-1.8-7.1-3.6-9.1-7.5  c-3-5.8-7.8-10.5-13.7-13.3C666.8,495.7,671.6,491.6,676.6,487.8L676.6,487.8z M663.8,585.2c8.9-12.7,14.3-26.7,14.6-42.5  c0-1.3-1.7-4.1,1.5-4c3,0.1,2.8,2.5,2.5,4.8c-1.4,12.2-5.6,23.4-11.2,34.2c-7.3,13.9-16,26.8-28.8,36.3c-0.3,0.1-0.6,0.2-0.9,0.3  c-0.2-1.3-0.5-2.4-0.7-3.6c-0.4-3.1-1.6-6.5-0.8-9.3c0.8-3.2,5-2,7.6-3.1C654.2,595.4,659.8,590.9,663.8,585.2z M655,607.2  c-0.7-0.1-1,0.2-0.8,1c-0.9-0.2-1.2,0.2-1,1c-0.9-0.2-1.1,0.2-1,0.9l-3.2,0.8c2.5-0.6,3.3-3.2,5.1-4.6  C656.2,604.9,654.9,606.8,655,607.2L655,607.2z M649.2,611.8l-0.7,0.1c0.3-0.1,0.4-0.5,0.4-0.9C649,611.3,649.1,611.6,649.2,611.8  L649.2,611.8z M648.1,612.4c0.1,0.2,0.1,0.5,0.2,0.7C647.2,613.2,647.8,612.8,648.1,612.4L648.1,612.4z M648,612L648,612z   M637.8,582.4c-1.2,0.2-2.5,0.2-2.8-1.2c-0.2-1.1,0.5-2.1,1.5-2.4c0.1,0,0.3,0,0.4,0c3.1-0.4,6.1-1.7,10.3-1.1  C644.7,580.3,641.4,582,637.8,582.4L637.8,582.4z M688,518.7c0.3,4,0.5,7.9-0.6,11.8C686.3,526.5,687.9,522.6,688,518.7z   M640.4,386.7c11.8,1.6,16.7,8.9,19.3,20.1c-15.7-4.3-31-6.1-46.5-6.8c-9.2-0.4-18.3,0.5-27.4,1.5c-2,0.2-4.3,0.6-4.2-2.5  c0.1-2.4-1.9-5.4,2.1-6.7C602.2,386.5,620.9,384.1,640.4,386.7L640.4,386.7z M584.2,265.8c0-4,0.5-8,1.5-11.8  c2.8-9.7,11-14.4,20.5-10.9c14.4,5.3,21.4,17.2,25.2,31.2c2.6,9.5,2.7,19.1-3,27.8c-5.8,8.9-15.8,11.3-24.6,5.2  C589.2,297.4,584.9,282.4,584.2,265.8L584.2,265.8z M573,370.5c4.9,0.8,9.8,1.6,14.8,2.3c1.6,0.2,2.2,1.2,2.6,2.5  c3.8,11.2,3.7,11.5-7.5,15.2c-2.6,0.9-5.2,1.8-8.2,2.9c-1.4-7-2.7-13.8-4-20.6C570.1,370.7,571,370.2,573,370.5L573,370.5z   M542.2,420.5c2.3-2.3,3.4,0.8,5.2,1c-0.4-12.6-1.8-25.2-4.4-37.5c-1.8-8.6-3.1-17.4-5.5-25.8c-2.1-7.6,3.1-11.5,6.9-17.6  c2.2,10.8,4.2,20.4,6.1,29.9c8.3,41.5,16.6,83.1,24.7,124.6c0.9,5.3,3.8,10,8.1,13.3c8.5,6.6,7.1,15.1,5,23.5s-8.5,12.3-16.7,13.6  c-0.7,0.1-1.3,0.4-1.8,0.9c9.7,0.9,15.4,7.4,21.3,13.8c1.6,1.5,3.6,2.5,5.8,2.8c3,0.5,5.4,0.7,5,4.8c-0.2,2.3,2.1,1.7,3.4,1.5  c4.9-0.9,9.5-3.2,13.1-6.7c13.1-12.6,17.8-27.8,13-45.5c-3.3-12.1-14.5-21.1-27.8-16.6c-2.1,0.7-2.9,0.3-3.2-2.1  c-0.4-3.1-0.2-7.5-2.1-9c-6.2-4.6-3.8-11.8-6.3-17.3c-1.2-2.7-0.4-4.7,2.4-6c2.4-1.1,4.6-2.7,7-3.8c7.1-3.2,10.1-2.6,13,4.4  c5.8,13.6,17.7,19.7,29.7,25.7c2.3,1.1,3.1,1.7,1.4,3.6c-3.2,3.5-2.3,7-1,10.9c8.7,25.8-2.6,60-24.9,75.7c-3.8,2.7-8.2,4.3-12.7,6.3  c3.8,4.9,8.9,7.6,14.5,9.3c3.2,1,4.5,2.8,5,5.8c0.9,4.9,1.9,9.8,3.1,14.6c0.7,2.7,0.2,4.2-2.5,5.3c-14.2,5.8-27.7,6-40.5-3.8  c-18.6-14.2-26.8-33.8-28.8-56.4c-0.6-7-2.8-13.7-2.8-20.7c0-10.3,1.7-20.4,6-29.6c4.1-8.6,4.7-16.8,2.7-26  c-4.1-18.3-7.5-36.8-11-55.2c-0.5-2.5-1.2-4-3.8-4.3c-6.7,3.1-12.4,7.8-18.4,12.2c-1.4,1-2.8,2-4.2,2.9  C530.1,434.6,535.5,427,542.2,420.5L542.2,420.5z M600.2,525.2c-0.6-1.5-1.3-2.9,0.9-3.5c1.7-0.4,3.5-1.2,4.6,1.2  c1.2,2.6,2,5.2,1.8,7.2c0,8.3-4.2,15.5-9.5,16.9c-1.5,0.4-3.5,1.1-4.6-0.5c-1.2-1.8,1-2.5,1.9-3.4  C600.5,538.1,603.1,532.4,600.2,525.2L600.2,525.2z M617.5,527.6c-0.7-5.9-4-9.7-9.7-11c-1.3-0.3-2.3-0.3-2.2-1.9s1.2-2.1,2.7-2.3  c3.9-0.6,8.8,2.3,11.1,7c1.5,3,2.2,6.3,2.1,9.6c0,8.5-2.5,15-7.3,20.7c-1.6,1.9-3.6,3.4-5.9,4.5c-1.1,0.5-3,1-3.6-0.3  c-0.8-1.6,1.1-2,2.1-2.7C615.2,545.6,618.7,537.7,617.5,527.6L617.5,527.6z M195,315.3c0.6,1.8-0.6,3.4-2.4,4.5  c-7.7,4.6-15.4,9.3-23.1,14l25.4-25.4C195.8,310.5,194.3,313,195,315.3z M205.2,321.7c-2.2-0.2-2.8-1-2.7-3c0.1-5,0-9.9,0-16.2  l18.1,20.9C215,322.8,210.1,322.1,205.2,321.7L205.2,321.7z M254.5,348.2c-0.6-0.7-2-1.7-1.3-2.3c1.9-1.5,3.9-2.9,6-4.1l2.6,1.6  c18.7,11.6,37.4,23.2,56.2,34.6c3.1,1.9,3.3,3.1,1.3,5.9c-4.2,6-8,12.2-11.9,18.3c-1.3,2.1-2.1,2.4-3.9,0.3  C287.2,384.4,270.9,366.3,254.5,348.2L254.5,348.2z M229.8,515.6c-5.5,18.1-13.8,34.6-28.4,47.3c-14.3,12.4-33.3,14.4-47,4.5  c-9.5-6.9-15.3-16.7-18.8-27.6c-10.3-32-6.2-62.8,8.1-92.6c5.4-11.7,13.4-22,23.4-30.2c18.1-14.8,38.7-13,53.9,4.6  c4.1,4.7,7.3,10,9.4,15.8c0.5,1.3,2.5,3.1-0.1,4.1c-2.1,0.9-3.7,0-4.8-2.3c-1.3-2.9-2.9-5.6-4.6-8.3c-13.2-19.8-34.1-23.2-52.9-8.5  c-12,9.4-19.7,21.9-25.3,35.8c-5.8,14.5-8.8,29.6-8.6,42.8c0.1,19.8,3,36.4,13.5,50.7c5.9,8,13.5,13.4,23.5,15.3  c6.4,1.2,11.3-2.2,16.7-4.3c22.1-8.8,30.1-28.5,37.6-48.5c0.9-2.3-0.2-7.6,4.5-5.9C233.5,509.6,230.5,513.2,229.8,515.6L229.8,515.6  z M222,443.1c0.1,1.5-3.6,1.5-5.5,2.5c-0.7,0.4-1.5,0.6-2.3,0.9c-9.7,3.1-10.6,2.8-16.9-5c-1-1.2-0.5-1.7,0.4-2.3  c3.5-2.4,6.8-5.4,11.3-4.9c2.9-0.1,5.8,0.7,8.3,2.2C219.8,438.1,221.8,440.6,222,443.1z M179.5,527.6c1.8-1.5,3.3-0.8,5,0  c9.5,4.2,19.2,6.4,29.5,3.4c0.4-0.3,0.9-0.5,1.2,0.1c0.1,0.1-0.3,0.5-0.5,0.7c-1.9,7-6.9,11.8-11.5,17c-2.2,2.3-4.5,4.4-7,6.4  c-4.1,3.4-7.1,3.2-10.6-0.9c-4-4.5-5.5-10.1-6.6-15.9c-0.4-2-0.5-4-0.9-5.9S177.8,529,179.5,527.6L179.5,527.6z M227.3,479.4  c-15.4,2.5-31,4.1-46.6,5.8c-3.6,0.4-7,1.8-9.9,4.1c-1.6,1.3-3.8,2.6-5.9,1.1c-2-1.4-1.3-3.6-0.9-5.5c0.8-3.2,0.4-6.5,1.2-9.7  c-6.3,4.1-2.6,10.6-3.7,15.9c-0.6,2.1,0.7,4.3,2.9,4.9c0.3,0.1,0.6,0.1,0.8,0.1c3.5,0.5,5.7,1.9,6.5,5.5c0.3,1.3,1.8,3.4,3.1,1.3  c4.5-7,11-4.1,17.4-4.3c-2.7,8.5-7.1,15.6-14.1,20.7c-6.5,4.7-14.3,2.7-18.7-4.5c-5-8.2-5.6-17.3-4.9-26.5  c1.1-14.2,4.5-27.5,16.1-37.3c6.7-5.7,14.3-5.5,19.5,0.3c1.9,2.1,1.7,3-1,4c-5.4,2-10.8,4.1-15.7,7.3c-0.7,0.5-1.3,1-2.5,1.9  c3.4,0.2,5.6-1.1,8-1.9c15.2-4.8,30.4-9.4,45.3-14.9c13.3-4.9,26.2-2.5,39.2,0.2c6.5,1.4,13,2.8,19.5,3.9c2.5,0.4,3.5,1.6,4,4.1  c1.3,6.8,1.8,13.8,4.8,20.2c0.8,1.8-0.7,2.3-1.3,3.4c-1.1,2.1-1.8,4.8,0.6,5.6c7.4,2.5,5.3,9,6.5,14.1c0,0.7-0.1,1.4-0.3,2.1  c-3.5-5.2-6.2-9.6-10.2-13.3c-5.9-5.4-6.1-6.3-2.2-13.3c3.2-5.8,2.5-10.6-1.6-15.8c-3.7,4.6-5.4,10-7.4,15c-1.3,3.3-2.4,2.9-4.4,0.9  c-5.8-6-11.9-11.6-18.3-17c-6.2-5-12.9-6.5-20.5-4.5c-19.3,5-38.7,9.4-57.8,15.1c-1.5,0.5-4.2,0.1-3.7,2.6c0.6,2.7,2.3,4.3,5.8,3.7  c15.7-3,31.4-5.6,47.1-8.4c4.7-0.8,9.5-1.6,14.2-2.5c4.1-0.9,8.4,0.1,11.7,2.8c8,6.5,15.5,13.5,21.3,22.4c-4.5-1.8-9.1-3.5-13.5-5.5  C248.4,478.8,237.7,477.5,227.3,479.4L227.3,479.4z M278.2,509.2c-3-3.8-6.7-7.2-10.5-11.2c4.6-0.4,7.6,0.7,10,3.6  c1.1,1.3,2.2,2.5,3.5,3.6c1.6,1.4,3.2,4,5.1,3.5c2.1-0.5,0.8-3.5,1.4-5.3s0.5-4.2,2.2-4.7c2-0.6,2.5,2.1,3.8,3.3  c1.3,1.3,2.4,2.8,3.2,4.4c2.6,5,0.9,7.3-4.4,8.3C286.1,516,282,514,278.2,509.2L278.2,509.2z M403.4,511.4  c-7.5,3.8-14.4,8.9-21.4,13.7c-12.4,8.4-25.8,10.4-40.3,7.1c-8.2-1.9-16.7-2.4-25.2-3.6c0.1,3.6,3.1,5.1,5.1,7.8  c-5.7,0.4-10.8,0.7-15.3-3.4c-4.3-3.8-8.5-7.7-14.8-11.4c7.6-0.4,13.6,1.5,19.6,2.4c12.8,2,25.5,4.6,38.4,5.7  c10,0.9,18.7-2,26.6-7.8c13.6-10,25.2-22.1,37.1-34c0.5-0.5,0.7-1.5,1.7-1.7C413.2,495.8,414,505.9,403.4,511.4L403.4,511.4z   M319.5,471.1c1-13.6,6-25.5,16.8-34.3c9.9-8,19.2-5.3,24.4,6.4c2.5,5.6,3,11.5,3.1,17.5c0.1,10.4-3,20.5-8.9,29.1  c-2.8,4.4-6.8,7.9-11.6,10c-7.2,3.1-13.3,1.6-18.2-4.5C319.5,488.1,318.9,479.7,319.5,471.1z M475.5,401.5l1.3,0.6l-13.4,31.6  C456.2,418.4,467.6,410.7,475.5,401.5L475.5,401.5z M449.5,467.7c1.8,1,2.1,1.8,1.3,3.8c-4.7,12.1-9.1,24.2-13.7,36.3  c-1.6,4.9-5.8,8.4-10.8,9.3c-4,0.8-6.1-0.3-5.9-4.7c0.5-9.8,0.4-19.7,1.4-29.4c1.5-14.2-4.1-23.8-16.3-30.8  c-13.5-7.8-26.9-16-39.6-25c-9.7-6.8-18.7-6.1-28.5-1.4c-1.9,0.9-3.8,1.8-6.5,3.1c5.6-12,10.3-22.9,22.5-29.4  c21.1-11.2,41.4-23.8,62.1-35.8c1.4-0.8,2.9-1.4,4.5-2.1c-0.5,8.6-3.9,14.3-12.3,17.9c-17.8,7.7-35,16.6-52.5,25.1  c-2,1-4.9,1.7-4.8,4.4c0.1,2.4,2.9,2.9,4.7,3.9C387.1,430.6,418,449.7,449.5,467.7L449.5,467.7z M416.7,395.6v43.2l-33.1-19.2  c-1.7-1-3.6-1.8-0.6-3.6C393.9,409.4,404.8,402.8,416.7,395.6z M420,319c7.6-5.2,5.5-4.7,10.2,2c1.1,1.7,2,3.4,2.9,5.2  c8.1,9.9,8,11-2.5,17.2c-32.4,18.9-64.7,37.8-97.1,56.7c-4.4,2.4-7.6,6.5-9,11.2c-6.4,19.1-13,38.2-19.8,57.2  c-2.5,7.1-1.2,14.1,0.1,21.8c-7.2-7.8-9.6-16.8-11-26.2c-1-6.6-1.8-13.2-3.3-19.6c-0.8-3.6,0.1-6.2,2-9.2  c9-13.7,17.9-27.6,26.7-41.4c3.7-5.9,8.1-10.8,14.1-14.4c5.4-3.2,10.5-6.9,15.8-10.4c4.7-4.9,10.5-8.3,16.1-12  c1.9-1.2,3.7-2.4,5.6-3.7C387,341.9,403.4,330.3,420,319L420,319z M267.1,336c18.1,11.1,36.3,22.1,54.3,33.5  c4.5,2.8,7.7,2.5,11.9-0.7c10.6-8,21.6-15.5,32.5-23.2c9-6.4,9.1-7.6,2.3-16.3c4.6,0.6,7.3,3.1,8.8,7.5c1.4,4.1-1.3,6.2-4,8.2  c-13.9,9.9-28,19.7-41.9,29.7c-2.6,1.8-4.5,1.7-7.1,0.1c-19.8-12.2-39.7-24.2-59.5-36.3c-2.5-1.4-4.5-3.5-5.8-6.1  C251.7,317,247,301,241,284.8c3.8,1.1,5,3.2,6,6c4.7,13.1,9.7,26.1,14.5,39.1C262.6,332.5,264.6,334.7,267.1,336z M209.8,264.6  c2.6-3,6-2.5,9.2-1.9c8.2,1.6,16.4,3.4,24.6,5.2c1.5,0.3,4-0.1,3.6,2.9c0.8,12.6,0.7,12.6-11.1,7.5c-8.8-3.8-17.7-7.4-26.6-11  C206.5,266.1,208.4,265.4,209.8,264.6z M173.4,260.6c-0.4-0.5-0.8-1-1.1-1.5l0.5-1.1c4.9,1.8,9.9,3.5,14.8,5.4  c14.7,5.6,29.6,11.1,44.1,17.4c3.3,1.2,5.8,3.9,6.8,7.3c4.2,13.3,8.6,26.6,12.9,39.9c0.4,1.1,0.5,2.3,0.8,3.4s0.3,2.1-0.6,2.8  c-1.3,1-2.2-0.3-3-1c-4.8-4.4-9.6-8.8-14.2-13.3C213.9,300.1,193.6,280.3,173.4,260.6L173.4,260.6z" style="fill: #030303;"></path><path class="st1" d="M655.3,607.3C655.3,607.3,655.3,607.4,655.3,607.3L655.3,607.3C655.3,607.4,655.3,607.3,655.3,607.3z" style="fill: #12dac6; fill-opacity: 1;"></path><path class="st1" d="M590.5,428.7c-2,0.9-4,1.7-5.2,3.6c-0.9,1.5-1.6,3.2-0.5,4.7s2.4-0.1,3.6-0.4c1.6-0.4,3.1-1.1,4.7-1.6  c33.6-11.6,67.3,1.9,83.8,33.4c9.6,18.3,13.9,38.8,12.5,59.4c-1.8,28.9-11.8,54.8-30.5,77.2c-0.1,0.1-0.2,0.3-0.3,0.5  s-0.2,0.3-0.3,0.5l-0.2,0.4c-0.5,1-1.6,1.5-2.6,1.2c0,0.1,0.1,0.2,0.1,0.3c0,0.1,0,0.2,0,0.3c0,0.1,0,0.2,0,0.2  c-0.1,0.3-0.5,0.4-1.1,0.2c0.1,0.2,0.1,0.4,0.1,0.6c0,0.1,0,0.3-0.1,0.4c-0.2,0.2-0.5,0.2-1,0c0.1,0.3,0.1,0.5,0.1,0.8  c0,0.1-0.1,0.1-0.1,0.2c-0.1,0.1-0.2,0.1-0.4,0.1c-0.2,0-0.4,0-0.6-0.1c0.2,0.9-0.1,1.9-0.8,2.6c-0.2,0.3-0.5,0.5-0.8,0.8l-0.5,0.5  c-0.3,0.2-0.6,0.5-0.8,0.7c-2.5,2.4-5.2,4.6-8,6.7c-15.3,11.2-32.2,18.4-51.4,17.1c-27.1-1.8-44.9-17.6-56.2-40.8  c-16.5-34.1-14.1-69-0.8-103.6c4.2-10.8,10.8-20.2,15.8-30.6c0.9-1.9,2.5-3.8,1.2-6.8c-1.4,1.8-2.5,3-3.5,4.3  c-18.6,24.3-28.2,51.9-29.8,82.3c-1.2,23.9,3.2,46.8,15.8,67.5c10.8,17.7,25.7,30.2,46.4,34.3c27.1,5.5,50.5-3.5,70.5-21.2  c32.4-28.7,46.7-65.6,46.2-108.5c-0.3-23.8-7.2-45.5-21.6-64.7C654.3,424.9,620.7,415.8,590.5,428.7z" style="fill: #12dac6; fill-opacity: 1;"></path><path class="st1" d="M230,508.3c-4.6-1.7-3.6,3.6-4.5,5.9c-7.6,20.1-15.6,39.7-37.6,48.5c-5.4,2.2-10.2,5.5-16.7,4.3  c-10-1.9-17.6-7.3-23.5-15.3c-10.6-14.3-13.4-30.9-13.5-50.7c-0.2-13.2,2.8-28.3,8.6-42.8c5.5-13.9,13.3-26.4,25.3-35.8  c18.8-14.7,39.7-11.3,52.9,8.5c1.7,2.6,3.3,5.4,4.6,8.3c1.1,2.2,2.7,3.1,4.8,2.3c2.6-1.1,0.5-2.9,0.1-4.1  c-2.2-5.8-5.3-11.1-9.4-15.8c-15.2-17.6-35.8-19.4-53.9-4.6c-9.9,8.2-17.9,18.5-23.4,30.2c-14.3,29.8-18.4,60.7-8.1,92.6  c3.5,11,9.3,20.8,18.8,27.6c13.7,9.9,32.7,7.9,47-4.5c14.6-12.7,22.9-29.2,28.4-47.3C230.5,513.2,233.5,509.6,230,508.3z" style="fill: #12dac6; fill-opacity: 1;"></path><path class="st1" d="M248.4,333c0.8,0.7,1.6,2,3,1c0.9-0.6,0.8-1.7,0.6-2.8s-0.4-2.3-0.8-3.4c-4.3-13.3-8.7-26.5-12.9-39.9  c-1-3.4-3.5-6.1-6.8-7.3c-14.5-6.3-29.3-11.8-44.1-17.4c-4.9-1.9-9.8-3.6-14.8-5.4l-0.5,1.1c0.3,0.5,0.7,1,1.1,1.5  c20.3,19.8,40.5,39.5,60.8,59.2C238.9,324.3,243.7,328.6,248.4,333z" style="fill: #12dac6; fill-opacity: 1;"></path><path class="st1" d="M365.1,357.2c-5.6,3.6-11.4,7.1-16.1,12c1.8,1.2,3.5,2.5,5.1,3.9c2.7,2.8,4.9,2.7,8.1,0.5  c15.8-10.8,31.8-21.2,47.8-31.8c7.7-5.1,16-9.5,23-15.6c-0.8-1.8-1.8-3.5-2.9-5.2c-4.8-6.6-2.6-7.2-10.2-2  c-16.6,11.3-33,22.8-49.3,34.5C368.8,354.8,367,356,365.1,357.2z" style="fill: #12dac6; fill-opacity: 1;"></path><path class="st1" d="M581.6,399c-0.1,3.1,2.2,2.7,4.2,2.5c9.1-1,18.2-1.9,27.4-1.5c15.5,0.7,30.8,2.5,46.5,6.8  c-2.7-11.2-7.5-18.5-19.3-20.1c-19.4-2.6-38.2-0.2-56.6,5.6C579.7,393.6,581.7,396.6,581.6,399z" style="fill: #12dac6; fill-opacity: 1;"></path><path class="st1" d="M443.7,384.3c9.4-7.6,19.2-14.8,28.8-22.1c-4.5-5.3-10.2-8.8-16.4-11.7c-3.5-1.9-7.8-1.1-10.4,1.9  c-1.5,1.5-3,3-4.5,4.6c-4.6,4.5-9,9.2-13.2,14.2l0,0c3,4,6.3,7.8,8.9,11.9C439.1,386.4,440.5,386.9,443.7,384.3z" style="fill: #12dac6; fill-opacity: 1;"></path><path class="st1" d="M548.8,427.9L548.8,427.9c-1-2,0.4-4.6-1.6-6.3c-1.8-0.1-2.9-3.3-5.2-1c-6.6,6.5-11.9,14.1-15.8,22.4  c1.4-0.9,2.8-1.9,4.2-2.9C536.5,435.7,542.1,431,548.8,427.9z" style="fill: #12dac6; fill-opacity: 1;"></path><path class="st3" d="M575.9,538.2c3.5-2.2,6.1-8,5.2-12.2c-0.5-2.5-1.6-4.9-4.3-5.5s-5.2,0.1-6.5,3l0,0c-4,3.4-3.5,7.9-2.4,12.1  C568.7,539.1,572.8,540.1,575.9,538.2z M570.4,523.7c0.1,0.1,0.1,0.2,0.2,0.2c2.6-0.4,5.4-3.3,7.7,0.5c1.6,2.6,0.1,9.3-2.6,11.4  c-1.2,0.9-2.5,1.7-4.1,0.9c-2.3-1-2.7-3.1-3-5.3C568.2,528.6,570.8,526.5,570.4,523.7L570.4,523.7z" style="fill: #030303;"></path><path class="st3" d="M168.9,474.9c-1.9-0.2-1.1,2.3-1.8,3.5c-0.2,0.3-0.3,0.6-0.2,0.9c0.3,2.5-3.2,6.5,0.3,7.1  c3.3,0.5,2.3-4.6,3.5-6.9C170.5,477.6,171.2,475.1,168.9,474.9z" style="fill: #030303;"></path><path class="st3" d="M343.1,447.8c4.4,3.1,5.9,7.8,7.5,12.5c0.9,2.5,1.8,5.4,5.9,4.6s2.8-3.8,3.1-5.9c0-4.1-0.9-8.1-2.7-11.9  c-1.7-3.8-4.8-5.8-8.8-6.6c-2.5-0.5-3.8,0.9-4.5,2.9C343.2,444.8,341,446.3,343.1,447.8z" style="fill: #030303;"></path><path class="st3" d="M354.9,468.1c-2.2,0-3.1,1.7-4,3.3c-2.6,4.4-4.9,9.5-9.5,11.9c-4.4,2.3-3.1,4.7-1.4,7.5  c1.9,3.2,4.8,2.8,7.3,0.9c6.8-5.1,9.8-12.3,11.5-20.3C358.9,468.5,357.1,468.1,354.9,468.1z" style="fill: #030303;"></path><path class="st3" d="M335.1,490.5c1.6-2-0.1-3.2-1.6-4.4c-3.9-2.9-6.5-7.2-7.3-12c-0.2-1-0.1-2.8-1.6-2.7c-2,0.2-0.8,2.1-1.1,3.2  c0,0.3,0,0.7,0,1h0.1c-0.1,0.7-0.1,1.3,0,2c0.8,4.8,2.3,9.3,5.9,12.8C331.2,492.1,333.4,492.6,335.1,490.5z" style="fill: #030303;"></path><path class="st3" d="M327.5,462.5c2.7-5.5,5.3-11,10.2-15c1.1-0.9,2.8-2,1.2-3.5c-1.3-1.3-2.9-0.3-4,0.8c-6.4,5.8-9.7,13-10.8,22.2  C326.9,465.7,326.9,463.8,327.5,462.5z" style="fill: #030303;"></path><path class="st3" d="M334.8,468.7c0,2.8-0.3,6.4,5.3,6.9c-4.8-6.4-2.6-11.2,1.7-15.8C337.6,460.1,334.8,463.5,334.8,468.7z" style="fill: #030303;"></path><polygon class="st1" points="290.5,556.8 271.2,571.9 266.8,594.1 293,589 302.3,583.1 484.5,583.1 312.5,571.2 " style="fill: #12dac6; fill-opacity: 1;"></polygon><polygon class="st3" points="336.6,317.8 405.5,244.9 402.1,242.6 321.4,318.6 " style="fill: #030303;"></polygon><polygon class="st3" points="518,204.9 561.8,210.2 565.2,198.6 513.7,201.4 " style="fill: #030303;"></polygon></svg> <svg y="425.085" viewBox="1.0099999904632568 4.300000190734863 445.1499938964844 11.829998970031738" x="64.925" height="11.829998970031738" width="445.1499938964844" style="overflow: visible;"><g fill="#F5F5F5" fill-opacity="1" style=""><path d="M4.55 9.57L2.90 9.57L5.79 13.91L7.64 13.91L4.55 9.57ZM2.55 4.81L1.01 4.81L1.01 13.91L2.55 13.91L2.55 4.81ZM1.92 4.81L1.92 6.14L3.76 6.14Q4.29 6.14 4.68 6.32Q5.07 6.50 5.29 6.84Q5.51 7.18 5.51 7.67L5.51 7.67Q5.51 8.15 5.29 8.50Q5.07 8.84 4.68 9.02Q4.29 9.19 3.76 9.19L3.76 9.19L1.92 9.19L1.92 10.47L3.82 10.47Q4.82 10.47 5.55 10.11Q6.28 9.76 6.69 9.13Q7.10 8.49 7.10 7.63L7.10 7.63Q7.10 6.77 6.69 6.14Q6.28 5.51 5.55 5.16Q4.82 4.81 3.82 4.81L3.82 4.81L1.92 4.81ZM15.90 4.81L14.34 4.81L14.34 13.91L15.90 13.91L15.90 4.81ZM25.08 4.81L23.50 4.81L23.50 13.91L25.08 13.91L25.08 4.81ZM24.45 13.91L26.44 13.91Q27.83 13.91 28.89 13.34Q29.94 12.78 30.53 11.76Q31.12 10.74 31.12 9.36L31.12 9.36Q31.12 7.98 30.53 6.96Q29.94 5.94 28.89 5.38Q27.83 4.81 26.44 4.81L26.44 4.81L24.45 4.81L24.45 6.25L26.40 6.25Q27.08 6.25 27.65 6.45Q28.22 6.64 28.65 7.03Q29.07 7.42 29.31 8.01Q29.55 8.59 29.55 9.36L29.55 9.36Q29.55 10.13 29.31 10.71Q29.07 11.30 28.65 11.68Q28.22 12.06 27.65 12.27Q27.08 12.47 26.40 12.47L26.40 12.47L24.45 12.47L24.45 13.91ZM39.16 12.56L39.16 13.91L43.74 13.91L43.74 12.56L39.16 12.56ZM39.16 4.81L39.16 6.16L43.74 6.16L43.74 4.81L39.16 4.81ZM39.16 8.37L39.16 9.70L43.48 9.70L43.48 8.37L39.16 8.37ZM39.71 4.81L38.21 4.81L38.21 13.91L39.71 13.91L39.71 4.81ZM54.76 9.57L53.11 9.57L55.99 13.91L57.85 13.91L54.76 9.57ZM52.75 4.81L51.22 4.81L51.22 13.91L52.75 13.91L52.75 4.81ZM52.13 4.81L52.13 6.14L53.96 6.14Q54.50 6.14 54.89 6.32Q55.28 6.50 55.50 6.84Q55.72 7.18 55.72 7.67L55.72 7.67Q55.72 8.15 55.50 8.50Q55.28 8.84 54.89 9.02Q54.50 9.19 53.96 9.19L53.96 9.19L52.13 9.19L52.13 10.47L54.03 10.47Q55.03 10.47 55.76 10.11Q56.49 9.76 56.89 9.13Q57.30 8.49 57.30 7.63L57.30 7.63Q57.30 6.77 56.89 6.14Q56.49 5.51 55.76 5.16Q55.03 4.81 54.03 4.81L54.03 4.81L52.13 4.81ZM65.14 10.97L65.14 10.97L64.00 11.78Q64.30 12.40 64.81 12.94Q65.33 13.47 66.01 13.79Q66.69 14.11 67.48 14.11L67.48 14.11Q68.07 14.11 68.61 13.92Q69.15 13.73 69.58 13.38Q70.01 13.04 70.26 12.53Q70.51 12.03 70.51 11.39L70.51 11.39Q70.51 10.79 70.30 10.34Q70.10 9.89 69.76 9.57Q69.43 9.24 69.02 9.02Q68.61 8.80 68.20 8.66L68.20 8.66Q67.47 8.40 67.02 8.15Q66.56 7.90 66.35 7.62Q66.13 7.35 66.13 6.99L66.13 6.99Q66.13 6.60 66.43 6.31Q66.73 6.02 67.37 6.02L67.37 6.02Q67.82 6.02 68.17 6.19Q68.51 6.37 68.77 6.66Q69.03 6.96 69.21 7.29L69.21 7.29L70.45 6.59Q70.23 6.11 69.81 5.67Q69.39 5.23 68.80 4.93Q68.20 4.64 67.39 4.64L67.39 4.64Q66.57 4.64 65.93 4.95Q65.29 5.27 64.91 5.82Q64.53 6.37 64.53 7.10L64.53 7.10Q64.53 7.74 64.78 8.18Q65.03 8.63 65.40 8.94Q65.78 9.24 66.20 9.44Q66.61 9.65 66.95 9.76L66.95 9.76Q67.52 9.97 67.96 10.19Q68.41 10.40 68.65 10.71Q68.89 11.01 68.89 11.51L68.89 11.51Q68.89 12.05 68.50 12.39Q68.11 12.73 67.48 12.73L67.48 12.73Q66.98 12.73 66.55 12.51Q66.13 12.29 65.79 11.90Q65.44 11.51 65.14 10.97ZM88.62 4.81L87.09 4.81L87.09 10.92Q87.09 11.67 87.33 12.27Q87.57 12.86 88.01 13.27Q88.45 13.69 89.06 13.91Q89.67 14.13 90.40 14.13L90.40 14.13Q91.13 14.13 91.74 13.91Q92.35 13.69 92.80 13.27Q93.25 12.86 93.49 12.27Q93.73 11.67 93.73 10.92L93.73 10.92L93.73 4.81L92.18 4.81L92.18 10.86Q92.18 11.69 91.73 12.21Q91.29 12.73 90.40 12.73L90.40 12.73Q89.53 12.73 89.08 12.21Q88.62 11.69 88.62 10.86L88.62 10.86L88.62 4.81ZM109.42 4.81L107.91 4.81L107.91 10.92L101.27 4.36L101.27 13.91L102.78 13.91L102.78 7.80L109.42 14.37L109.42 4.81ZM118.60 4.81L117.04 4.81L117.04 13.91L118.60 13.91L118.60 4.81ZM125.29 4.81L125.29 6.23L127.70 6.23L127.70 13.91L129.23 13.91L129.23 6.23L131.64 6.23L131.64 4.81L125.29 4.81ZM139.30 12.56L139.30 13.91L143.88 13.91L143.88 12.56L139.30 12.56ZM139.30 4.81L139.30 6.16L143.88 6.16L143.88 4.81L139.30 4.81ZM139.30 8.37L139.30 9.70L143.62 9.70L143.62 8.37L139.30 8.37ZM139.85 4.81L138.35 4.81L138.35 13.91L139.85 13.91L139.85 4.81ZM152.93 4.81L151.36 4.81L151.36 13.91L152.93 13.91L152.93 4.81ZM152.31 13.91L154.30 13.91Q155.69 13.91 156.74 13.34Q157.79 12.78 158.39 11.76Q158.98 10.74 158.98 9.36L158.98 9.36Q158.98 7.98 158.39 6.96Q157.79 5.94 156.74 5.38Q155.69 4.81 154.30 4.81L154.30 4.81L152.31 4.81L152.31 6.25L154.26 6.25Q154.93 6.25 155.51 6.45Q156.08 6.64 156.50 7.03Q156.92 7.42 157.16 8.01Q157.40 8.59 157.40 9.36L157.40 9.36Q157.40 10.13 157.16 10.71Q156.92 11.30 156.50 11.68Q156.08 12.06 155.51 12.27Q154.93 12.47 154.26 12.47L154.26 12.47L152.31 12.47L152.31 13.91ZM167.86 12.88L166.44 12.48L165.30 15.85L166.34 16.13L167.86 12.88ZM186.37 4.81L184.83 4.81L184.83 13.91L186.37 13.91L186.37 4.81ZM185.74 4.81L185.74 6.16L187.58 6.16Q188.37 6.16 188.85 6.53Q189.33 6.90 189.33 7.63L189.33 7.63Q189.33 8.36 188.85 8.74Q188.37 9.11 187.58 9.11L187.58 9.11L185.74 9.11L185.74 10.47L187.58 10.47Q188.58 10.47 189.31 10.12Q190.03 9.78 190.44 9.14Q190.85 8.50 190.85 7.63L190.85 7.63Q190.85 6.76 190.44 6.13Q190.03 5.50 189.31 5.15Q188.58 4.81 187.58 4.81L187.58 4.81L185.74 4.81ZM201.47 9.57L199.82 9.57L202.71 13.91L204.57 13.91L201.47 9.57ZM199.47 4.81L197.94 4.81L197.94 13.91L199.47 13.91L199.47 4.81ZM198.85 4.81L198.85 6.14L200.68 6.14Q201.21 6.14 201.60 6.32Q201.99 6.50 202.22 6.84Q202.44 7.18 202.44 7.67L202.44 7.67Q202.44 8.15 202.22 8.50Q201.99 8.84 201.60 9.02Q201.21 9.19 200.68 9.19L200.68 9.19L198.85 9.19L198.85 10.47L200.75 10.47Q201.75 10.47 202.48 10.11Q203.20 9.76 203.61 9.13Q204.02 8.49 204.02 7.63L204.02 7.63Q204.02 6.77 203.61 6.14Q203.20 5.51 202.48 5.16Q201.75 4.81 200.75 4.81L200.75 4.81L198.85 4.81ZM212.37 9.36L212.37 9.36Q212.37 8.42 212.77 7.69Q213.17 6.96 213.87 6.54Q214.57 6.12 215.46 6.12L215.46 6.12Q216.39 6.12 217.08 6.54Q217.78 6.96 218.17 7.69Q218.56 8.42 218.56 9.36L218.56 9.36Q218.56 10.30 218.16 11.02Q217.76 11.75 217.07 12.17Q216.37 12.60 215.46 12.60L215.46 12.60Q214.57 12.60 213.87 12.17Q213.17 11.75 212.77 11.02Q212.37 10.30 212.37 9.36ZM210.74 9.36L210.74 9.36Q210.74 10.37 211.09 11.25Q211.45 12.12 212.08 12.75Q212.72 13.39 213.58 13.75Q214.45 14.11 215.46 14.11L215.46 14.11Q216.50 14.11 217.36 13.75Q218.22 13.39 218.86 12.75Q219.49 12.12 219.84 11.25Q220.19 10.37 220.19 9.36L220.19 9.36Q220.19 8.33 219.84 7.48Q219.49 6.62 218.85 5.99Q218.21 5.36 217.35 5.00Q216.49 4.64 215.46 4.64L215.46 4.64Q214.46 4.64 213.60 5.00Q212.73 5.36 212.09 5.99Q211.45 6.62 211.09 7.48Q210.74 8.33 210.74 9.36ZM231.62 9.15L231.62 10.45L234.42 10.45Q234.30 10.91 234.07 11.31Q233.83 11.71 233.48 12.03Q233.13 12.34 232.65 12.51Q232.17 12.68 231.56 12.68L231.56 12.68Q230.66 12.68 229.94 12.26Q229.23 11.84 228.81 11.10Q228.40 10.35 228.40 9.36L228.40 9.36Q228.40 8.36 228.82 7.62Q229.24 6.89 229.96 6.48Q230.69 6.07 231.56 6.07L231.56 6.07Q232.51 6.07 233.17 6.46Q233.84 6.85 234.22 7.50L234.22 7.50L235.47 6.67Q235.07 6.03 234.49 5.58Q233.92 5.14 233.19 4.89Q232.45 4.64 231.56 4.64L231.56 4.64Q230.53 4.64 229.66 4.99Q228.79 5.33 228.14 5.96Q227.49 6.59 227.13 7.46Q226.77 8.32 226.77 9.36L226.77 9.36Q226.77 10.40 227.12 11.27Q227.47 12.14 228.12 12.78Q228.76 13.42 229.63 13.76Q230.50 14.11 231.53 14.11L231.53 14.11Q232.62 14.11 233.47 13.71Q234.31 13.31 234.88 12.62Q235.46 11.93 235.74 11.04Q236.03 10.15 236.00 9.15L236.00 9.15L231.62 9.15ZM246.70 9.57L245.05 9.57L247.94 13.91L249.80 13.91L246.70 9.57ZM244.70 4.81L243.17 4.81L243.17 13.91L244.70 13.91L244.70 4.81ZM244.08 4.81L244.08 6.14L245.91 6.14Q246.44 6.14 246.83 6.32Q247.22 6.50 247.44 6.84Q247.66 7.18 247.66 7.67L247.66 7.67Q247.66 8.15 247.44 8.50Q247.22 8.84 246.83 9.02Q246.44 9.19 245.91 9.19L245.91 9.19L244.08 9.19L244.08 10.47L245.97 10.47Q246.97 10.47 247.70 10.11Q248.43 9.76 248.84 9.13Q249.25 8.49 249.25 7.63L249.25 7.63Q249.25 6.77 248.84 6.14Q248.43 5.51 247.70 5.16Q246.97 4.81 245.97 4.81L245.97 4.81L244.08 4.81ZM257.44 12.56L257.44 13.91L262.03 13.91L262.03 12.56L257.44 12.56ZM257.44 4.81L257.44 6.16L262.03 6.16L262.03 4.81L257.44 4.81ZM257.44 8.37L257.44 9.70L261.77 9.70L261.77 8.37L257.44 8.37ZM258.00 4.81L256.49 4.81L256.49 13.91L258.00 13.91L258.00 4.81ZM270.10 10.97L270.10 10.97L268.96 11.78Q269.26 12.40 269.77 12.94Q270.28 13.47 270.97 13.79Q271.65 14.11 272.44 14.11L272.44 14.11Q273.03 14.11 273.57 13.92Q274.11 13.73 274.53 13.38Q274.96 13.04 275.22 12.53Q275.47 12.03 275.47 11.39L275.47 11.39Q275.47 10.79 275.26 10.34Q275.05 9.89 274.72 9.57Q274.39 9.24 273.98 9.02Q273.57 8.80 273.16 8.66L273.16 8.66Q272.43 8.40 271.97 8.15Q271.52 7.90 271.30 7.62Q271.09 7.35 271.09 6.99L271.09 6.99Q271.09 6.60 271.39 6.31Q271.69 6.02 272.32 6.02L272.32 6.02Q272.78 6.02 273.12 6.19Q273.47 6.37 273.73 6.66Q273.99 6.96 274.17 7.29L274.17 7.29L275.41 6.59Q275.18 6.11 274.77 5.67Q274.35 5.23 273.75 4.93Q273.16 4.64 272.35 4.64L272.35 4.64Q271.53 4.64 270.89 4.95Q270.24 5.27 269.87 5.82Q269.49 6.37 269.49 7.10L269.49 7.10Q269.49 7.74 269.74 8.18Q269.98 8.63 270.36 8.94Q270.74 9.24 271.15 9.44Q271.57 9.65 271.91 9.76L271.91 9.76Q272.48 9.97 272.92 10.19Q273.36 10.40 273.60 10.71Q273.85 11.01 273.85 11.51L273.85 11.51Q273.85 12.05 273.46 12.39Q273.07 12.73 272.44 12.73L272.44 12.73Q271.93 12.73 271.51 12.51Q271.09 12.29 270.74 11.90Q270.40 11.51 270.10 10.97ZM283.22 10.97L283.22 10.97L282.07 11.78Q282.37 12.40 282.89 12.94Q283.40 13.47 284.08 13.79Q284.77 14.11 285.56 14.11L285.56 14.11Q286.14 14.11 286.68 13.92Q287.22 13.73 287.65 13.38Q288.08 13.04 288.33 12.53Q288.59 12.03 288.59 11.39L288.59 11.39Q288.59 10.79 288.38 10.34Q288.17 9.89 287.84 9.57Q287.51 9.24 287.10 9.02Q286.69 8.80 286.27 8.66L286.27 8.66Q285.55 8.40 285.09 8.15Q284.64 7.90 284.42 7.62Q284.21 7.35 284.21 6.99L284.21 6.99Q284.21 6.60 284.51 6.31Q284.80 6.02 285.44 6.02L285.44 6.02Q285.90 6.02 286.24 6.19Q286.59 6.37 286.85 6.66Q287.11 6.96 287.29 7.29L287.29 7.29L288.52 6.59Q288.30 6.11 287.89 5.67Q287.47 5.23 286.87 4.93Q286.27 4.64 285.47 4.64L285.47 4.64Q284.65 4.64 284.00 4.95Q283.36 5.27 282.98 5.82Q282.61 6.37 282.61 7.10L282.61 7.10Q282.61 7.74 282.85 8.18Q283.10 8.63 283.48 8.94Q283.86 9.24 284.27 9.44Q284.69 9.65 285.03 9.76L285.03 9.76Q285.60 9.97 286.04 10.19Q286.48 10.40 286.72 10.71Q286.96 11.01 286.96 11.51L286.96 11.51Q286.96 12.05 286.57 12.39Q286.18 12.73 285.56 12.73L285.56 12.73Q285.05 12.73 284.63 12.51Q284.21 12.29 283.86 11.90Q283.52 11.51 283.22 10.97ZM306.62 10.27L306.32 11.57L311.13 11.57L310.84 10.27L306.62 10.27ZM307.27 10.73L308.70 7.38L310.15 10.76L310.18 11.14L311.41 13.91L313.16 13.91L308.70 4.30L304.25 13.91L305.98 13.91L307.24 11.06L307.27 10.73ZM320.54 9.36L320.54 9.36Q320.54 8.39 320.98 7.66Q321.41 6.94 322.11 6.55Q322.82 6.15 323.65 6.15L323.65 6.15Q324.30 6.15 324.82 6.32Q325.35 6.49 325.77 6.78Q326.18 7.07 326.50 7.44L326.50 7.44L326.50 5.62Q325.94 5.14 325.27 4.89Q324.60 4.64 323.60 4.64L323.60 4.64Q322.59 4.64 321.73 4.99Q320.87 5.33 320.23 5.96Q319.59 6.59 319.23 7.46Q318.88 8.32 318.88 9.36L318.88 9.36Q318.88 10.39 319.23 11.25Q319.59 12.12 320.23 12.75Q320.87 13.39 321.73 13.73Q322.59 14.07 323.60 14.07L323.60 14.07Q324.60 14.07 325.27 13.82Q325.94 13.57 326.50 13.10L326.50 13.10L326.50 11.27Q326.18 11.65 325.77 11.94Q325.35 12.23 324.82 12.40Q324.30 12.57 323.65 12.57L323.65 12.57Q322.82 12.57 322.11 12.17Q321.41 11.77 320.98 11.04Q320.54 10.32 320.54 9.36ZM335.11 9.36L335.11 9.36Q335.11 8.39 335.55 7.66Q335.98 6.94 336.69 6.55Q337.39 6.15 338.22 6.15L338.22 6.15Q338.87 6.15 339.40 6.32Q339.92 6.49 340.34 6.78Q340.76 7.07 341.07 7.44L341.07 7.44L341.07 5.62Q340.51 5.14 339.84 4.89Q339.17 4.64 338.17 4.64L338.17 4.64Q337.17 4.64 336.30 4.99Q335.44 5.33 334.80 5.96Q334.16 6.59 333.81 7.46Q333.45 8.32 333.45 9.36L333.45 9.36Q333.45 10.39 333.81 11.25Q334.16 12.12 334.80 12.75Q335.44 13.39 336.30 13.73Q337.17 14.07 338.17 14.07L338.17 14.07Q339.17 14.07 339.84 13.82Q340.51 13.57 341.07 13.10L341.07 13.10L341.07 11.27Q340.76 11.65 340.34 11.94Q339.92 12.23 339.40 12.40Q338.87 12.57 338.22 12.57L338.22 12.57Q337.39 12.57 336.69 12.17Q335.98 11.77 335.55 11.04Q335.11 10.32 335.11 9.36ZM349.49 12.56L349.49 13.91L354.08 13.91L354.08 12.56L349.49 12.56ZM349.49 4.81L349.49 6.16L354.08 6.16L354.08 4.81L349.49 4.81ZM349.49 8.37L349.49 9.70L353.82 9.70L353.82 8.37L349.49 8.37ZM350.05 4.81L348.54 4.81L348.54 13.91L350.05 13.91L350.05 4.81ZM363.09 4.81L361.56 4.81L361.56 13.91L366.70 13.91L366.70 12.53L363.09 12.53L363.09 4.81ZM374.35 12.56L374.35 13.91L378.94 13.91L378.94 12.56L374.35 12.56ZM374.35 4.81L374.35 6.16L378.94 6.16L378.94 4.81L374.35 4.81ZM374.35 8.37L374.35 9.70L378.68 9.70L378.68 8.37L374.35 8.37ZM374.91 4.81L373.40 4.81L373.40 13.91L374.91 13.91L374.91 4.81ZM389.95 9.57L388.30 9.57L391.18 13.91L393.04 13.91L389.95 9.57ZM387.95 4.81L386.41 4.81L386.41 13.91L387.95 13.91L387.95 4.81ZM387.32 4.81L387.32 6.14L389.15 6.14Q389.69 6.14 390.08 6.32Q390.47 6.50 390.69 6.84Q390.91 7.18 390.91 7.67L390.91 7.67Q390.91 8.15 390.69 8.50Q390.47 8.84 390.08 9.02Q389.69 9.19 389.15 9.19L389.15 9.19L387.32 9.19L387.32 10.47L389.22 10.47Q390.22 10.47 390.95 10.11Q391.68 9.76 392.09 9.13Q392.50 8.49 392.50 7.63L392.50 7.63Q392.50 6.77 392.09 6.14Q391.68 5.51 390.95 5.16Q390.22 4.81 389.22 4.81L389.22 4.81L387.32 4.81ZM401.13 10.27L400.83 11.57L405.64 11.57L405.35 10.27L401.13 10.27ZM401.78 10.73L403.21 7.38L404.66 10.76L404.69 11.14L405.92 13.91L407.67 13.91L403.21 4.30L398.76 13.91L400.49 13.91L401.75 11.06L401.78 10.73ZM412.48 4.81L412.48 6.23L414.88 6.23L414.88 13.91L416.42 13.91L416.42 6.23L418.82 6.23L418.82 4.81L412.48 4.81ZM426.48 12.56L426.48 13.91L431.07 13.91L431.07 12.56L426.48 12.56ZM426.48 4.81L426.48 6.16L431.07 6.16L431.07 4.81L426.48 4.81ZM426.48 8.37L426.48 9.70L430.81 9.70L430.81 8.37L426.48 8.37ZM427.04 4.81L425.53 4.81L425.53 13.91L427.04 13.91L427.04 4.81ZM440.11 4.81L438.54 4.81L438.54 13.91L440.11 13.91L440.11 4.81ZM439.49 13.91L441.48 13.91Q442.87 13.91 443.92 13.34Q444.98 12.78 445.57 11.76Q446.16 10.74 446.16 9.36L446.16 9.36Q446.16 7.98 445.57 6.96Q444.98 5.94 443.92 5.38Q442.87 4.81 441.48 4.81L441.48 4.81L439.49 4.81L439.49 6.25L441.44 6.25Q442.12 6.25 442.69 6.45Q443.26 6.64 443.68 7.03Q444.11 7.42 444.35 8.01Q444.59 8.59 444.59 9.36L444.59 9.36Q444.59 10.13 444.35 10.71Q444.11 11.30 443.68 11.68Q443.26 12.06 442.69 12.27Q442.12 12.47 441.44 12.47L441.44 12.47L439.49 12.47L439.49 13.91Z" transform="translate(0, 0)"></path></g></svg> <svg y="336.085" viewBox="3.559999942779541 21.6299991607666 277.8600158691406 63.81000518798828" x="148.57" height="63.81000518798828" width="277.8600158691406" style="overflow: visible;"><g fill="#12dac6" fill-opacity="1" style=""><path d="M19.85 84.55L3.92 84.55Q3.56 84.55 3.56 84.11L3.56 84.11L3.74 22.96Q3.74 22.61 4.09 22.61L4.09 22.61L21.18 22.61Q26.25 22.61 30.26 25.05Q34.27 27.50 36.58 31.51Q38.89 35.51 38.89 40.23L38.89 40.23Q38.89 44.05 37.16 47.35Q35.42 50.64 33.02 52.69L33.02 52.69Q35.60 55.27 37.02 58.65Q38.45 62.03 38.45 65.77L38.45 65.77Q38.45 70.93 35.96 75.20Q33.46 79.48 29.24 82.01Q25.01 84.55 19.85 84.55L19.85 84.55ZM14.42 33.20L14.42 47.17L21.18 47.17Q24.30 47.17 26.21 44.99Q28.12 42.81 28.12 40.23L28.12 40.23Q28.12 37.38 26.08 35.29Q24.03 33.20 21.18 33.20L21.18 33.20L14.42 33.20ZM14.42 57.94L14.33 73.69L19.85 73.69Q23.05 73.69 25.36 71.33Q27.68 68.97 27.68 65.77L27.68 65.77Q27.68 62.57 25.36 60.25Q23.05 57.94 19.85 57.94L19.85 57.94L14.42 57.94ZM61.32 85.44L61.32 85.44Q56.52 85.44 52.55 82.99Q48.59 80.55 46.19 76.50Q43.79 72.45 43.79 67.55L43.79 67.55L43.88 39.34Q43.88 34.44 46.24 30.44Q48.59 26.43 52.60 24.03Q56.60 21.63 61.32 21.63L61.32 21.63Q66.13 21.63 70.04 24.03Q73.96 26.43 76.32 30.44Q78.68 34.44 78.68 39.34L78.68 39.34L78.77 67.55Q78.77 72.45 76.41 76.50Q74.05 80.55 70.09 82.99Q66.13 85.44 61.32 85.44ZM61.32 74.67L61.32 74.67Q63.99 74.67 65.99 72.49Q68.00 70.31 68.00 67.55L68.00 67.55L67.91 39.34Q67.91 36.40 66.04 34.35Q64.17 32.31 61.32 32.31L61.32 32.31Q58.56 32.31 56.60 34.31Q54.65 36.31 54.65 39.34L54.65 39.34L54.65 67.55Q54.65 70.49 56.60 72.58Q58.56 74.67 61.32 74.67ZM101.91 84.46L85.97 84.55Q85.53 84.55 85.53 84.11L85.53 84.11L85.71 22.96Q85.71 22.61 86.06 22.61L86.06 22.61L102.71 22.52Q107.60 22.43 111.65 24.83Q115.70 27.23 118.10 31.28Q120.51 35.33 120.51 40.23L120.51 40.23L120.51 65.77Q120.51 70.93 118.01 75.16Q115.52 79.39 111.34 81.88Q107.16 84.37 101.91 84.46L101.91 84.46ZM96.48 33.29L96.39 73.60L101.91 73.60Q105.20 73.60 107.47 71.29Q109.74 68.97 109.74 65.77L109.74 65.77L109.74 40.14Q109.74 37.29 107.65 35.20Q105.55 33.11 102.71 33.20L102.71 33.20L96.48 33.29ZM121.84 84.11L121.84 84.11L132.88 22.96Q132.97 22.61 133.32 22.61L133.32 22.61L146.23 22.61Q146.58 22.61 146.67 22.96L146.67 22.96L157.26 84.11Q157.35 84.55 156.91 84.55L156.91 84.55L147.03 84.55Q146.67 84.55 146.58 84.11L146.58 84.11L145.60 77.61L133.50 77.61L132.52 84.11Q132.43 84.55 132.08 84.55L132.08 84.55L122.20 84.55Q121.84 84.55 121.84 84.11ZM139.28 43.08L135.28 68.08L143.82 68.08L140.17 43.08L139.64 39.78L139.28 43.08ZM173.28 84.55L163.23 84.55Q162.87 84.55 162.87 84.11L162.87 84.11L162.96 22.96Q162.96 22.61 163.40 22.61L163.40 22.61L173.28 22.61Q173.73 22.61 173.73 22.96L173.73 22.96L173.64 47.17L186.99 47.17L186.99 22.96Q186.99 22.61 187.34 22.61L187.34 22.61L197.22 22.61Q197.67 22.61 197.67 22.96L197.67 22.96L197.85 84.11Q197.85 84.55 197.40 84.55L197.40 84.55L187.43 84.55Q186.99 84.55 186.99 84.11L186.99 84.11L186.99 57.94L173.64 57.94L173.64 84.11Q173.64 84.55 173.28 84.55L173.28 84.55ZM221.52 85.44L221.52 85.44Q216.80 85.44 212.80 82.99Q208.79 80.55 206.44 76.45Q204.08 72.36 204.08 67.46L204.08 67.46L204.25 22.96Q204.25 22.61 204.61 22.61L204.61 22.61L214.58 22.61Q214.94 22.61 214.94 22.96L214.94 22.96L214.94 67.46Q214.94 70.49 216.85 72.58Q218.76 74.67 221.52 74.67L221.52 74.67Q224.37 74.67 226.28 72.58Q228.20 70.49 228.20 67.46L228.20 67.46L228.20 22.96Q228.20 22.61 228.55 22.61L228.55 22.61L238.52 22.61Q238.88 22.61 238.88 22.96L238.88 22.96L239.05 67.46Q239.05 72.45 236.70 76.54Q234.34 80.63 230.38 83.04Q226.42 85.44 221.52 85.44ZM262.37 84.55L246.44 84.55Q246.09 84.55 246.09 84.11L246.09 84.11L246.26 22.96Q246.26 22.61 246.62 22.61L246.62 22.61L263.71 22.61Q268.78 22.61 272.79 25.05Q276.79 27.50 279.10 31.51Q281.42 35.51 281.42 40.23L281.42 40.23Q281.42 44.05 279.68 47.35Q277.95 50.64 275.54 52.69L275.54 52.69Q278.13 55.27 279.55 58.65Q280.97 62.03 280.97 65.77L280.97 65.77Q280.97 70.93 278.48 75.20Q275.99 79.48 271.76 82.01Q267.53 84.55 262.37 84.55L262.37 84.55ZM256.94 33.20L256.94 47.17L263.71 47.17Q266.82 47.17 268.74 44.99Q270.65 42.81 270.65 40.23L270.65 40.23Q270.65 37.38 268.60 35.29Q266.56 33.20 263.71 33.20L263.71 33.20L256.94 33.20ZM256.94 57.94L256.85 73.69L262.37 73.69Q265.58 73.69 267.89 71.33Q270.20 68.97 270.20 65.77L270.20 65.77Q270.20 62.57 267.89 60.25Q265.58 57.94 262.37 57.94L262.37 57.94L256.94 57.94Z" transform="translate(0, 0)"></path></g></svg></svg>